<?xml version="1.0" encoding="utf-8"?>
<!-- Generator: Adobe Illustrator 25.2.0, SVG Export Plug-In . SVG Version: 6.00 Build 0)  -->
<svg version="1.1" id="Layer_1" xmlns="http://www.w3.org/2000/svg" xmlns:xlink="http://www.w3.org/1999/xlink" x="0px" y="0px"
	 viewBox="0 0 30.4 30" style="enable-background:new 0 0 30.4 30;" xml:space="preserve">
<style type="text/css">
	.st0{fill:#1A1A1A;}
	.st1{fill:#FFFFFF;}
	.st2{fill:none;stroke:#FFFFFF;stroke-miterlimit:10;}
</style>
<rect class="st0" width="31" height="30.6"/>
<path class="st2" d="M29.1,11.3c-0.3-1.3-0.8-2.5-1.5-3.6C26,8.3,24.3,8,23.2,6.9c-1.1-1.1-1.4-2.9-0.8-4.5
	c-1.1-0.6-2.3-1.1-3.6-1.5c-0.8,1.6-2.2,2.6-3.7,2.6s-3-1.1-3.7-2.6c-1.3,0.3-2.5,0.8-3.6,1.5C8.3,4.1,8.1,5.8,7,6.9
	C5.8,8,4.1,8.3,2.5,7.7C1.8,8.8,1.3,10,1,11.3C2.5,12,3.6,13.4,3.6,15S2.5,18,1,18.8c0.3,1.3,0.8,2.5,1.5,3.6
	C4.1,21.8,5.8,22,7,23.1c1.1,1.1,1.4,2.9,0.8,4.5c1.1,0.6,2.3,1.1,3.6,1.5c0.8-1.6,2.2-2.6,3.7-2.6s3,1.1,3.7,2.6
	c1.3-0.3,2.5-0.8,3.6-1.5c-0.6-1.6-0.3-3.4,0.8-4.5c1.1-1.1,2.9-1.4,4.5-0.8c0.6-1.1,1.1-2.3,1.5-3.6c-1.6-0.8-2.6-2.2-2.6-3.7
	S27.6,12,29.1,11.3z"/>
<circle class="st2" cx="15.1" cy="15" r="7.7"/>
<g>
	<g>
		<g>
			<rect x="14.5" y="11.2" class="st1" width="1" height="5.2"/>
		</g>
	</g>
	<g>
		<g>
			<path class="st1" d="M15.1,17.4c-0.4,0-0.7,0.3-0.7,0.7c0,0.4,0.3,0.7,0.7,0.7c0.4,0,0.7-0.3,0.7-0.7
				C15.8,17.8,15.4,17.4,15.1,17.4z"/>
		</g>
	</g>
</g>
</svg>
