<?xml version="1.0" encoding="utf-8"?>
<!-- Generator: Adobe Illustrator 25.2.0, SVG Export Plug-In . SVG Version: 6.00 Build 0)  -->
<svg version="1.1" id="Layer_1" xmlns="http://www.w3.org/2000/svg" xmlns:xlink="http://www.w3.org/1999/xlink" x="0px" y="0px"
	 viewBox="0 0 30.4 30" style="enable-background:new 0 0 30.4 30;" xml:space="preserve">
<style type="text/css">
	.st0{fill:#FFFFFF;}
	.st1{fill:none;stroke:#FFFFFF;stroke-width:2;stroke-miterlimit:10;}
</style>
<path class="st1" d="M27.2,22.6c0.7-1.1,1.2-2.2,1.6-3.4c-1.5-0.8-2.4-2.2-2.4-3.7c0.1-1.5,1.1-2.8,2.7-3.5
	c-0.3-1.2-0.7-2.4-1.3-3.5c-1.6,0.5-3.3,0.2-4.3-1c-1-1.1-1.2-2.8-0.6-4.4c-1.1-0.7-2.2-1.2-3.4-1.6c-0.8,1.5-2.2,2.4-3.7,2.4
	c-1.5-0.1-2.8-1.1-3.5-2.7c-1.2,0.3-2.4,0.7-3.5,1.3c0.5,1.6,0.2,3.3-1,4.3S5,8,3.4,7.4c-0.7,1.1-1.2,2.2-1.6,3.4
	c1.5,0.8,2.4,2.2,2.4,3.7C4.2,16,3.1,17.3,1.5,18c0.3,1.2,0.7,2.4,1.3,3.5c1.6-0.5,3.3-0.2,4.3,1c1,1.1,1.2,2.8,0.6,4.4
	c1.1,0.7,2.2,1.2,3.4,1.6c0.8-1.5,2.2-2.4,3.7-2.4c1.5,0.1,2.8,1.1,3.5,2.7c1.2-0.3,2.4-0.7,3.5-1.3c-0.5-1.6-0.2-3.3,1-4.3
	C24,22.1,25.6,21.9,27.2,22.6z"/>
<circle class="st1" cx="15.3" cy="15" r="7.5"/>
<g>
	<g>
		<g>
			<rect x="14.3" y="10.1" class="st0" width="2.1" height="6.7"/>
		</g>
	</g>
	<g>
		<g>
			<path class="st0" d="M15.3,17.8c-0.6,0-1.1,0.5-1.1,1.1c0,0.6,0.5,1.1,1.1,1.1c0.6,0,1.1-0.5,1.1-1.1
				C16.4,18.2,15.9,17.8,15.3,17.8z"/>
		</g>
	</g>
</g>
</svg>
