<?xml version="1.0" encoding="utf-8"?>
<!-- Generator: Adobe Illustrator 21.0.0, SVG Export Plug-In . SVG Version: 6.00 Build 0)  -->
<svg version="1.1" id="Layer_2" xmlns="http://www.w3.org/2000/svg" xmlns:xlink="http://www.w3.org/1999/xlink" x="0px" y="0px"
	 viewBox="0 0 64 64" style="enable-background:new 0 0 64 64;" xml:space="preserve">
<style type="text/css">
	.st0{fill:#FFFFFF;}
</style>
<g>
	<g>
		<g>
			<path class="st0" d="M48.3,4.9L48.3,4.9l-30.9,0c-3.8,0-6.8,3.1-6.8,6.8v6.2c0,0.7,0.6,1.2,1.2,1.2h10.5v35.1c0,1.1,0.3,2.1,1,3
				c0.9,1.2,2.6,1.6,4,1.1c1.2-0.5,2.3-1.5,2.9-2.7l7.6-12.2l7.6,12.2c0.7,1.2,1.7,2.1,2.9,2.7c1.4,0.6,3,0.1,4-1.1
				c0.7-0.9,1-1.9,1-3V9.9C53.3,7.1,51.1,4.9,48.3,4.9z M22.3,16.6H13v-4.9c0-2.4,1.9-4.3,4.3-4.3H18v0c2.4,0,4.3,1.9,4.3,4.3
				L22.3,16.6L22.3,16.6z M50.3,55.7C50.2,55.9,50,56,49.9,56c-0.2,0-0.4,0-0.6-0.1c-0.7-0.4-1.3-1-1.7-1.7l-8.7-13.8
				c-0.1-0.2-0.2-0.3-0.4-0.4c-0.6-0.4-1.4-0.2-1.7,0.4L28,54.3c-0.4,0.7-1,1.3-1.7,1.6C26.1,56,25.9,56,25.7,56
				c-0.2-0.1-0.4-0.2-0.5-0.3c-0.3-0.4-0.5-0.9-0.4-1.4V11.7c0-1.6-0.5-3.1-1.5-4.3h25.1l0,0c1.4,0,2.4,1.1,2.5,2.5v44.4
				C50.8,54.8,50.6,55.3,50.3,55.7z"/>
			<path class="st0" d="M49.6,59.7c-0.6,0-1.1-0.1-1.7-0.3l0,0c-1.4-0.6-2.7-1.7-3.4-3.1l-6.7-10.7l-6.7,10.7
				c-0.8,1.4-2,2.5-3.4,3.1l0,0c-1.9,0.8-4,0.2-5.2-1.4l0,0c-0.8-1.1-1.2-2.4-1.2-3.7v-34h-9.4c-1.3,0-2.3-1-2.3-2.3v-6.2
				c0-4.4,3.6-7.9,7.9-7.9h32v0.1c2.8,0.5,5,3,5,6v44.4c0,1.3-0.4,2.7-1.2,3.7C52.3,59.1,51,59.7,49.6,59.7z M48.8,57.3
				c1,0.4,2,0.1,2.7-0.7c0.5-0.6,0.8-1.5,0.7-2.3l0,0V9.9c0-1.5-0.8-2.7-2-3.4L50,6.8c1.1,0.6,1.8,1.7,1.8,3.1l0,0v44.4
				c0,0.8-0.2,1.5-0.6,2.1l0,0c-0.3,0.3-0.6,0.6-1,0.7l-0.1,0c-0.4,0.1-0.9,0.1-1.3-0.1l0,0c-0.9-0.5-1.6-1.2-2.1-2.1L37.9,41
				c0,0,0,0,0-0.1l0,0c-0.1,0-0.2,0-0.2,0.1l-8.7,13.8c-0.5,0.9-1.2,1.6-2.2,2.1l-0.1,0c-0.4,0.2-0.9,0.2-1.3,0.1l-0.1,0
				c-0.4-0.1-0.7-0.4-1-0.7l0-0.1c-0.4-0.6-0.7-1.3-0.6-2.1V11.7c0-1.3-0.5-2.6-1.3-3.6l-1.4-1.8h28.9C49.3,6.1,48.9,6,48.3,6h-1.1
				v0H17.4c-3.2,0-5.8,2.6-5.8,5.8v6.2c0,0.1,0.1,0.2,0.2,0.2h11.6l0,36.2c0,0.8,0.2,1.6,0.8,2.3c0.6,0.8,1.7,1.1,2.7,0.7
				c1-0.4,1.9-1.2,2.4-2.2l0-0.1l8.6-13.6l8.6,13.7C46.9,56.1,47.8,56.9,48.8,57.3z M25.9,54.9L25.9,54.9L25.9,54.9z M39,39.1
				c0.3,0.2,0.6,0.4,0.8,0.8l8.7,13.9l0,0.1c0.2,0.5,0.6,0.8,1,1.1c0.1-0.2,0.1-0.4,0.1-0.6l0,0V9.9c0-0.8-0.6-1.4-1.4-1.4l-2,0l0,0
				H25.2c0.5,1,0.7,2.1,0.7,3.2v42.6l0,0c0,0.2,0,0.4,0.1,0.6c0.4-0.3,0.8-0.6,1-1.1l0-0.1l8.8-13.8C36.5,38.8,37.9,38.4,39,39.1z
				 M37.9,41L37.9,41L37.9,41z M23.3,17.7H11.9v-6c0-3,2.5-5.4,5.4-5.4H19v0.2c2.4,0.5,4.3,2.7,4.3,5.3V17.7z M14.1,15.5h7.1v-3.8
				c0-1.7-1.5-3.2-3.2-3.2l-1,0c-1.5,0.2-2.8,1.6-2.8,3.2L14.1,15.5z"/>
		</g>
	</g>
</g>
</svg>
