<?xml version="1.0" encoding="utf-8"?>
<!-- Generator: Adobe Illustrator 19.0.0, SVG Export Plug-In . SVG Version: 6.00 Build 0)  -->
<svg version="1.1" id="Capa_1" xmlns="http://www.w3.org/2000/svg" xmlns:xlink="http://www.w3.org/1999/xlink" x="0px" y="0px"
	 viewBox="-49 141 512 512" style="enable-background:new -49 141 512 512;" xml:space="preserve">
<style type="text/css">
	.st0{fill:#FFFFFF;}
</style>
<g>
	<g>
		<path class="st0" d="M207,322c-33.1,0-60,26.9-60,60s26.9,60,60,60s60-26.9,60-60S240.1,322,207,322z"/>
	</g>
</g>
<g>
	<g>
		<path class="st0" d="M450.5,352.2l-39.8-6.5c-5-19.9-12.8-38.8-23.4-56.4l22.9-32.1c4.3-6,3.6-14.1-1.6-19.3l-42.4-42.4
			c-5.2-5.2-13.4-5.9-19.3-1.6l-32.1,22.9c-17.6-10.6-36.5-18.4-56.4-23.4l-6.5-39.8c-1.2-7.2-7.5-12.5-14.8-12.5h-60
			c-7.3,0-13.6,5.3-14.8,12.5l-6.5,39.8c-19.9,5-38.8,12.8-56.4,23.4l-32.1-22.9c-6-4.3-14.2-3.6-19.3,1.6L5.5,237.9
			c-5.2,5.2-5.9,13.4-1.6,19.3l22.9,32.1c-10.6,17.6-18.4,36.5-23.4,56.4l-39.8,6.5c-7.2,1.2-12.5,7.5-12.5,14.8v60
			c0,7.3,5.3,13.6,12.5,14.8l39.8,6.5c5,19.9,12.8,38.8,23.4,56.4L3.9,536.8c-4.3,6-3.6,14.1,1.6,19.3l42.4,42.4
			c5.2,5.2,13.4,5.8,19.3,1.6l32.1-22.9c17.6,10.6,36.5,18.4,56.4,23.4l6.5,39.8c1.2,7.2,7.5,12.5,14.8,12.5h60
			c7.3,0,13.6-5.3,14.8-12.5l6.5-39.8c19.9-5,38.8-12.8,56.4-23.4l32.1,22.9c5.9,4.2,14.1,3.6,19.3-1.6l42.4-42.4
			c5.2-5.2,5.9-13.4,1.6-19.3l-22.9-32.1c10.6-17.6,18.4-36.5,23.4-56.4l39.8-6.5c7.2-1.2,12.5-7.5,12.5-14.8v-60
			C463,359.7,457.7,353.4,450.5,352.2z M207,562c-91,0-165-74-165-165s74-165,165-165s165,74,165,165S298,562,207,562z"/>
	</g>
</g>
<g>
	<g>
		<path class="st0" d="M276.3,438.7C259.8,458.9,235,472,207,472s-52.8-13.1-69.3-33.3c-14.4,12.7-24.9,29.5-30.7,48.2
			c24.7,27.5,60.2,45.1,99.9,45.1s75.2-17.6,99.9-45.1C301.2,468.2,290.7,451.5,276.3,438.7z"/>
	</g>
</g>
</svg>
