<?xml version="1.0" encoding="utf-8"?>
<!-- Generator: Adobe Illustrator 19.0.0, SVG Export Plug-In . SVG Version: 6.00 Build 0)  -->
<svg version="1.1" id="Layer_1" xmlns="http://www.w3.org/2000/svg" xmlns:xlink="http://www.w3.org/1999/xlink" x="0px" y="0px"
	 viewBox="-273 365 64 64" style="enable-background:new -273 365 64 64;" xml:space="preserve">
<style type="text/css">
	.st0{fill:#FFFFFF;}
</style>
<path class="st0" d="M-209.7,381.1c-0.1-0.7-0.5-1.3-1.1-1.6l-29.4-13.7c-0.5-0.2-1.1-0.2-1.7,0l-29.4,13.7c-0.6,0.3-1,0.9-1.1,1.6
	c0,0,0,0.2,0,0.2v33.3c0,0.8,0.5,1.5,1.2,1.8l29.4,11.7c0.2,0.1,0.5,0.1,0.7,0.1c0.2,0,0.5,0,0.7-0.1l29.4-11.7
	c0.7-0.3,1.2-1,1.2-1.8v-33.3C-209.7,381.3-209.7,381.1-209.7,381.1 M-241,369.8l24.4,11.4l-9.4,3.8l-24.9-10.6L-241,369.8z
	 M-255.6,376.6l24.5,10.4l-9.9,3.9l-24.4-9.8L-255.6,376.6z M-268.4,384.2l25.4,10.2v29.1l-25.4-10.2V384.2z M-239,423.5v-29.1
	l25.4-10.2v29.1L-239,423.5z"/>
</svg>
