<?xml version="1.0" encoding="utf-8"?>
<!-- Generator: Adobe Illustrator 24.3.0, SVG Export Plug-In . SVG Version: 6.00 Build 0)  -->
<svg version="1.1" id="Layer_1" xmlns="http://www.w3.org/2000/svg" xmlns:xlink="http://www.w3.org/1999/xlink" x="0px" y="0px"
	 viewBox="0 0 278.64 279.7" style="enable-background:new 0 0 278.64 279.7;" xml:space="preserve">
<style type="text/css">
	.st0{fill:#DDD2E6;}
	.st1{fill:#572C81;}
	.st2{fill:#FFFFFF;}
</style>
<g>
	<circle class="st0" cx="139.48" cy="137.92" r="125"/>
	<polygon class="st1" points="90.4,135.97 90.4,198.64 212.56,198.64 212.56,135.97 178.72,110.8 178.48,131.92 147.88,110.8 
		147.88,135.97 	"/>
	<rect x="90.4" y="77.2" class="st1" width="22.08" height="13.44"/>
	<rect x="118.72" y="77.2" class="st1" width="23.04" height="13.44"/>
	<rect x="90.4" y="98.32" class="st1" width="22.08" height="12.48"/>
	<rect x="118.72" y="98.32" class="st1" width="23.04" height="12.48"/>
	<rect x="90.4" y="115.12" class="st1" width="22.08" height="12.96"/>
	<rect x="118.72" y="115.12" class="st1" width="23.04" height="12.96"/>
	<rect x="140.8" y="148.24" class="st2" width="14.16" height="7.92"/>
	<rect x="140.8" y="162.64" class="st2" width="14.16" height="6.94"/>
	<rect x="140.8" y="177.52" class="st2" width="14.16" height="7.68"/>
	<rect x="161.92" y="148.24" class="st2" width="14.4" height="7.92"/>
	<rect x="183.92" y="148.24" class="st2" width="14.4" height="7.92"/>
	<rect x="161.92" y="162.64" class="st2" width="14.4" height="6.94"/>
	<rect x="183.92" y="162.64" class="st2" width="14.4" height="6.94"/>
	<rect x="162.04" y="177.52" class="st2" width="14.16" height="7.68"/>
	<rect x="183.04" y="177.52" class="st2" width="14.16" height="7.68"/>
	<path class="st2" d="M112.48,198.62l-0.84-28.04h18.6v28.04h4.08v-34.98c0,0,0.36-3.18-7.56-2.28l-18.18-0.16l-6.3,5.02v32.4
		H112.48z"/>
</g>
</svg>
