<?xml version="1.0" encoding="utf-8"?>
<!-- Generator: Adobe Illustrator 19.0.0, SVG Export Plug-In . SVG Version: 6.00 Build 0)  -->
<svg version="1.1" id="Capa_1" xmlns="http://www.w3.org/2000/svg" xmlns:xlink="http://www.w3.org/1999/xlink" x="0px" y="0px"
	 viewBox="-255 256.8 488.2 488.2" style="enable-background:new -255 256.8 488.2 488.2;" xml:space="preserve">
<g>
	<g>
		<path d="M-77.1,526.2c0-6.1-5-11.1-11.1-11.1h-38.7c-6.1,0-11.1,5-11.1,11.1v38.7c0,6.1,5,11.1,11.1,11.1h38.7
			c6.1,0,11.1-5,11.1-11.1L-77.1,526.2L-77.1,526.2z"/>
		<path d="M19.5,526.2c0-6.1-5-11.1-11.1-11.1h-38.7c-6.1,0-11.1,5-11.1,11.1v38.7c0,6.1,5,11.1,11.1,11.1H8.4
			c6.1,0,11.1-5,11.1-11.1V526.2z"/>
		<path d="M116.1,526.2c0-6.1-5-11.1-11.1-11.1H66.4c-6.1,0-11.1,5-11.1,11.1v38.7c0,6.1,5,11.1,11.1,11.1H105
			c6.1,0,11.1-5,11.1-11.1V526.2z"/>
		<path d="M-77.1,622.8c0-6.1-5-11.1-11.1-11.1h-38.7c-6.1,0-11.1,4.9-11.1,11.1v38.7c0,6.1,5,11.1,11.1,11.1h38.7
			c6.1,0,11.1-5,11.1-11.1L-77.1,622.8L-77.1,622.8z"/>
		<path d="M19.5,622.8c0-6.1-5-11.1-11.1-11.1h-38.7c-6.1,0-11.1,4.9-11.1,11.1v38.7c0,6.1,5,11.1,11.1,11.1H8.4
			c6.1,0,11.1-5,11.1-11.1V622.8z"/>
		<path d="M116.1,622.8c0-6.1-5-11.1-11.1-11.1H66.4c-6.1,0-11.1,4.9-11.1,11.1v38.7c0,6.1,5,11.1,11.1,11.1H105
			c6.1,0,11.1-5,11.1-11.1L116.1,622.8L116.1,622.8z"/>
		<path d="M185.3,311.2v59c0,26.7-21.7,48.2-48.3,48.2h-30.5c-26.7,0-48.6-21.5-48.6-48.2V311H-79.6v59.3
			c0,26.7-21.9,48.2-48.6,48.2h-30.5c-26.7,0-48.3-21.5-48.3-48.2v-59.1c-23.3,0.7-42.5,20-42.5,43.7V701c0,24.2,19.6,44,43.8,44
			H184c24.1,0,43.8-19.9,43.8-44V354.9C227.7,331.2,208.6,311.9,185.3,311.2z M171.1,679.4c0,10.4-8.5,18.9-18.9,18.9h-327
			c-10.4,0-18.9-8.5-18.9-18.9V500.7c0-10.4,8.5-18.9,18.9-18.9h327c10.4,0,18.9,8.5,18.9,18.9L171.1,679.4L171.1,679.4z"/>
		<path d="M-158.9,386.8h30.2c9.2,0,16.6-7.4,16.6-16.6v-96.8c0-9.2-7.4-16.6-16.6-16.6h-30.2c-9.2,0-16.6,7.4-16.6,16.6v96.8
			C-175.4,379.4-168,386.8-158.9,386.8z"/>
		<path d="M106,386.8h30.2c9.1,0,16.6-7.4,16.6-16.6v-96.8c0-9.2-7.4-16.6-16.6-16.6H106c-9.2,0-16.6,7.4-16.6,16.6v96.8
			C89.5,379.4,96.9,386.8,106,386.8z"/>
	</g>
</g>
</svg>
