<?xml version="1.0" encoding="utf-8"?>
<!-- Generator: Adobe Illustrator 24.3.0, SVG Export Plug-In . SVG Version: 6.00 Build 0)  -->
<svg version="1.1" id="Layer_1" xmlns="http://www.w3.org/2000/svg" xmlns:xlink="http://www.w3.org/1999/xlink" x="0px" y="0px"
	 viewBox="0 0 272.16 285.12" style="enable-background:new 0 0 272.16 285.12;" xml:space="preserve">
<style type="text/css">
	.st0{fill:#DDE9F7;}
	.st1{fill:#5B99D2;}
</style>
<g>
	<circle class="st0" cx="137.04" cy="142.2" r="125"/>
	<g>
		<ellipse class="st1" cx="135.01" cy="109.53" rx="29.61" ry="30.69"/>
		<path class="st1" d="M119.34,148.32c0,0,17.64,12.6,34.2-0.9c0,0,14.4-8.46,25.38,0.36c0,0,6.02,4.14,7.92,17.1l1,32.76
			c0,0,0,8.46-14.86,10.62l-56.52,0.72h-16.2c0,0-17.28-1.98-17.46-13.68c0-4.95,0-9.9,0-14.86c0-3.52,0-7.05,0-10.57
			c0-3.14-0.3-6.29,0.74-9.32c0.94-2.75,2.56-5.31,4.13-7.75C94.33,142.45,110.07,140.19,119.34,148.32z"/>
	</g>
</g>
</svg>
