<?xml version="1.0" encoding="utf-8"?>
<!-- Generator: Adobe Illustrator 24.3.0, SVG Export Plug-In . SVG Version: 6.00 Build 0)  -->
<svg version="1.1" id="Layer_1" xmlns="http://www.w3.org/2000/svg" xmlns:xlink="http://www.w3.org/1999/xlink" x="0px" y="0px"
	 viewBox="0 0 169.92 196.68" style="enable-background:new 0 0 169.92 196.68;" xml:space="preserve">
<style type="text/css">
	.st0{fill:#F3B421;}
	.st1{fill:#EE2E2D;}
</style>
<g>
	<path class="st0" d="M104.2,161.15c-1.71,8.37-10.03,15.47-21.16,15.47s-20.05-7.74-21.16-15.47"/>
	<path class="st0" d="M66.47,29.55c0.06-0.2,0.13-0.41,0.21-0.61c0.22-0.58,0.47-1.14,0.74-1.69c0.83-1.69,1.89-3.27,3.15-4.67
		c2.13-2.36,4.75-3.96,7.78-4.91c0,0,6.3-1.98,12.24,0.9c2.69,1.3,5.09,3.28,6.84,5.7c1.15,1.58,1.96,3.39,2.5,5.26
		c0.35,1.23,1.25,3.08,0.76,4.37c-0.4,1.05-2.61,0.04-3.36-0.15c-1.94-0.51-3.9-0.99-5.88-1.35c-2.24-0.4-4.53-0.35-6.8-0.38
		c-2.41-0.03-4.83-0.01-7.23,0.17c-1.33,0.1-2.69,0.23-3.98,0.6c0,0-5.72,1.19-6.35,1.65c0,0-1.44,0.6-1.3-0.89
		C66.02,32.21,66.09,30.85,66.47,29.55z"/>
	<circle class="st1" cx="125.6" cy="66.65" r="30.08"/>
	<path class="st0" d="M58.08,43.79c0,0,19.5-12.36,42.75-3.96c0,0,2.07,0.84,0,2.04c0,0-9.51,9-9.99,20.52
		c0,0-2.88,18.6,12.84,31.68c0,0,11.88,10.32,28.2,7.08c0,0,1.56-0.84,1.08,1.68c0,0-0.72,16.32,7.2,25.08l4.68,5.04
		c0,0,9.48,6.24,3.84,17.28c0,0-2.76,6.36-12,6.36H51H26.64c0,0-10.08-1.56-10.8-14.16c0,0,0.84-5.64,5.16-8.88
		c0,0,9.24-7.44,11.16-18.12c0,0,1.68-5.52,1.2-12.6V87.71c0,0,0.6-14.88,4.44-21.72C37.8,65.99,45.72,50.27,58.08,43.79z"/>
</g>
</svg>
