<?xml version="1.0" encoding="utf-8"?>
<!-- Generator: Adobe Illustrator 19.0.0, SVG Export Plug-In . SVG Version: 6.00 Build 0)  -->
<svg version="1.1" id="Layer_1" xmlns="http://www.w3.org/2000/svg" xmlns:xlink="http://www.w3.org/1999/xlink" x="0px" y="0px"
	 viewBox="-243 245 512 512" style="enable-background:new -243 245 512 512;" xml:space="preserve">
<style type="text/css">
	.st0{fill:#F4B425;}
	.st1{fill:#F6282A;}
</style>
<path class="st0" d="M58.3,301.2c1.3,0.4,2.7-0.6,2.7-2C59.5,266.7,33.5,245,5,245c-28.6,0-54.5,22-55.9,54.2
	c-0.1,1.4,1.3,2.4,2.7,2C-15.4,290.3,26,290.4,58.3,301.2z"/>
<path class="st0" d="M206.7,621.1c-26.5-22.7-41.7-55.8-41.7-90.7v-13.5c0-1.3-1.2-2.2-2.4-2C94.7,528.5,29,476.2,29,405
	c0-48.4,26.5-74.3,35.1-81.6c1.1-1,0.8-2.8-0.5-3.4C-40.1,278.9-155,355.3-155,469v61.4c0,34.2-14.7,67.6-41.7,90.7
	c-4.5,3.8-8.1,8.7-10.5,14c-12.4,27,7.4,58,37.1,58h349.5c21.6,0,40-16.4,41.5-37.9C221.9,641.5,216.1,629.1,206.7,621.1
	L206.7,621.1z"/>
<path class="st0" d="M5,757c29.7,0,55.2-18.1,66.2-43.8c0.9-2-0.6-4.2-2.7-4.2h-127c-2.2,0-3.6,2.2-2.7,4.2
	C-50.2,738.9-24.7,757,5,757z"/>
<path class="st1" d="M141,501c53.3,0,96-43.1,96-96c0-52.9-43.1-96-96-96c-53.2,0-96,43.2-96,96C45,457.9,88.1,501,141,501z"/>
</svg>
