<?xml version="1.0" encoding="utf-8"?>
<!-- Generator: Adobe Illustrator 23.0.0, SVG Export Plug-In . SVG Version: 6.00 Build 0)  -->
<svg version="1.1" id="Layer_2" xmlns="http://www.w3.org/2000/svg" xmlns:xlink="http://www.w3.org/1999/xlink" x="0px" y="0px"
	 viewBox="0 0 1536.34 894.42" style="enable-background:new 0 0 1536.34 894.42;" xml:space="preserve">
<style type="text/css">
	.st0{fill:#F4F4F4;}
	.st1{fill:url(#SVGID_1_);}
	.st2{fill:url(#SVGID_2_);}
	.st3{fill:#192B59;}
	.st4{fill:#B7B7B7;}
	.st5{fill:url(#SVGID_3_);}
	.st6{fill:#A37FDD;}
	.st7{fill:url(#SVGID_4_);}
	.st8{fill:#512D10;}
	.st9{fill:url(#SVGID_5_);}
	.st10{fill:#F2DAD4;}
	.st11{opacity:0.44;fill:#FFFFFF;}
</style>
<g>
	<path class="st0" d="M298.95,337.8c56.28,0,101.08,15.81,134.41,47.4c33.31,31.61,49.98,74.89,49.98,129.85
		c0,65.07-20.06,115.12-60.16,150.17c-40.11,35.06-97.48,52.58-172.11,52.58c-64.81,0-117.14-10.47-156.98-31.45V580.09
		c20.97,11.14,45.4,20.22,73.28,27.25c27.88,7.03,54.3,10.53,79.25,10.53c75.13,0,112.71-30.76,112.71-92.27
		c0-58.59-38.89-87.89-116.68-87.89c-14.08,0-29.61,1.4-46.6,4.18c-16.99,2.79-30.79,5.78-41.41,8.95l-48.99-26.32l21.92-297.57
		h315.94v104.64H235.62l-10.74,114.59l13.94-2.79C255.01,339.67,275.06,337.8,298.95,337.8z"/>
	<path class="st0" d="M957.18,418.25c0,101.85-16.67,177.23-50.01,226.15c-33.34,48.93-84.66,73.39-153.98,73.39
		c-67.21,0-117.88-25.26-152-75.79c-34.14-50.52-51.2-125.11-51.2-223.76c0-102.9,16.6-178.75,49.8-227.55
		c33.2-48.79,84.34-73.19,153.4-73.19c67.19,0,118,25.53,152.4,76.58C939.98,245.15,957.18,319.86,957.18,418.25z M672.41,418.44
		c0,71.53,6.16,122.78,18.5,153.76c12.33,30.98,33.09,46.47,62.28,46.47c28.64,0,49.33-15.69,62.07-47.06
		c12.74-31.37,19.1-82.44,19.1-153.17c0-71.52-6.44-122.89-19.3-154.14c-12.87-31.25-33.5-46.87-61.87-46.87
		c-28.91,0-49.61,15.62-62.08,46.87S672.41,346.92,672.41,418.44z"/>
	<path class="st0" d="M1423.44,418.25c0,101.85-16.67,177.23-50.01,226.15c-33.34,48.93-84.66,73.39-153.98,73.39
		c-67.21,0-117.88-25.26-152-75.79c-34.14-50.52-51.2-125.11-51.2-223.76c0-102.9,16.6-178.75,49.8-227.55
		c33.2-48.79,84.34-73.19,153.4-73.19c67.19,0,118,25.53,152.4,76.58S1423.44,319.86,1423.44,418.25z M1138.67,418.44
		c0,71.53,6.16,122.78,18.5,153.76c12.33,30.98,33.09,46.47,62.28,46.47c28.64,0,49.33-15.69,62.07-47.06
		c12.74-31.37,19.1-82.44,19.1-153.17c0-71.52-6.44-122.89-19.3-154.14c-12.87-31.25-33.5-46.87-61.87-46.87
		c-28.91,0-49.61,15.62-62.08,46.87C1144.91,295.55,1138.67,346.92,1138.67,418.44z"/>
</g>
<linearGradient id="SVGID_1_" gradientUnits="userSpaceOnUse" x1="826.4816" y1="821.0325" x2="826.4816" y2="736.3569">
	<stop  offset="0" style="stop-color:#FFFFFF"/>
	<stop  offset="1" style="stop-color:#E6E7E8"/>
</linearGradient>
<ellipse class="st1" cx="826.48" cy="798.67" rx="610.52" ry="19.91"/>
<linearGradient id="SVGID_2_" gradientUnits="userSpaceOnUse" x1="530.6019" y1="391.2035" x2="727.7979" y2="391.2035">
	<stop  offset="0" style="stop-color:#9A3AED"/>
	<stop  offset="1" style="stop-color:#5D1EAF"/>
</linearGradient>
<path class="st2" d="M608.62,204.87c0,0-13.65,18.74-19.15,23.77c-5.49,5.03-11.98,12.8-11.98,12.8L530.6,401.31
	c0,0,12.46,146.06,11.87,152.41c0,0,16.71,6.19,28.2,13.6c11.49,7.42,17.6,10.22,17.6,10.22l41.78-64.44l27.74-60.96
	c0,0,3.82-44.36,5.45-46.19c1.63-1.83,4.56-9.11,4.56-11.72s2.52-39.26-1.66-57.45c-4.19-18.19-13.61-74.22-23.14-87.42
	C633.45,236.18,608.62,204.87,608.62,204.87z"/>
<path class="st3" d="M872.77,463.83c-4.23,0-8.3-1.25-11.79-3.6c-1.6-1.08-2.02-3.26-0.94-4.86c1.08-1.6,3.26-2.02,4.86-0.94
	c2.33,1.57,5.05,2.41,7.88,2.41c7.77,0,14.09-6.32,14.09-14.09s-6.32-14.09-14.09-14.09c-0.14,0-0.28-0.01-0.42-0.03l-27.49-3.34
	c-1.92-0.23-3.29-1.98-3.05-3.9c0.23-1.92,1.97-3.29,3.9-3.05l27.28,3.32c11.53,0.12,20.87,9.53,20.87,21.09
	C893.86,454.37,884.4,463.83,872.77,463.83z"/>
<path class="st4" d="M1079.84,762.29c0.59,3.4,0.82,20.26,0,24.13c-0.82,3.86-4.33,12.3-1.99,14.52c2.34,2.23,1.05,4.68,15.58,4.22
	c14.52-0.47,21.9-8.08,24.13-10.89c2.23-2.81,3.51-10.54,1.17-14.64c-2.34-4.1-4.68-10.33-3.75-10.43c0.94-0.11,3.28,0,3.28,0
	s1.05-8.42-0.12-12.87s-5.5-18.27-11.95-20.5C1099.75,733.6,1079.84,762.29,1079.84,762.29z"/>
<path class="st4" d="M773.55,755.29c-4.65,2.37-8.56,9.46-13.13,14.35c-4.57,4.89-14.35,9.62-14.68,15.74
	c-0.33,6.12,5.95,4.56,10.61,5.27s12.37,2.87,20.61,2.69c8.24-0.18,7.85-2.85,8.14-3.35c0.3-0.5,5.65-1.88,8.62-1.88
	c2.97,0,8.72,0,8.72,0v-10.6c0,0,1.29-8.32,2.08-10.1c0.79-1.78,0-6.34,0-6.34L773.55,755.29z"/>
<path class="st3" d="M921.65,522.05c-13.07,10.02-97.22,74.52-113.91,102.69c-16.68,28.17-12.89,58.22-18.8,70.9
	c-5.92,12.68-12.96,52.4-16.34,58.03c-3.38,5.63,6.76,4.51,15.78,12.4c9.02,7.89,14.37-1.13,18.88-5.63
	c4.51-4.51,11.55-50.43,16.62-59.73c5.07-9.3,19.44-50.43,25.92-51.27c6.48-0.85,68.46-41.41,74.66-41.41
	c6.2,0,17.47-2.59,20.57-1.58c3.1,1.01,21.41,28.06,22.26,51.72c0.85,23.66,3.94,54.09,19.72,66.2s17.47,6.2,30.43,12.11
	c12.96,5.92,49.58,23.1,54.94,25.35c5.35,2.25,14.93,5.63,24.79-0.56c9.86-6.2,11.27-19.16,11.27-26.2c0-7.04-20-14.37-29.86-18.59
	c-9.86-4.23-40.29-22.82-45.64-23.38c-5.35-0.56-9.02,0-12.11-1.41c-3.1-1.41-3.1-24.23,0-36.91c3.1-12.68,1.69-50.15,0.85-58.88
	C1020.8,587.18,921.65,522.05,921.65,522.05z"/>
<linearGradient id="SVGID_3_" gradientUnits="userSpaceOnUse" x1="892.9877" y1="443.4694" x2="876.0903" y2="414.6123">
	<stop  offset="0" style="stop-color:#F2C8AA"/>
	<stop  offset="1" style="stop-color:#F2DAD4"/>
</linearGradient>
<path class="st5" d="M908.7,417.59c-3.35-0.77-12.15,0.31-14.66-1.08c-2.51-1.39-10.88-4.32-17.85-2.65
	c-6.97,1.67-11.15,7.37-13.38,9.47c-2.23,2.1-8.37,6-6.97,9.35c1.39,3.35,9.06-0.28,10.18,0c1.12,0.28,7.53,11.29,10.04,12.55
	c2.51,1.25,8.78,1.25,12.69,1.12c3.9-0.14,22.03-8.64,24.96-10.74C916.62,433.52,908.7,417.59,908.7,417.59z"/>
<path class="st6" d="M1078.6,394.3c-9.79,2.1-27.24,10.13-38.82,14.6c-11.58,4.46-41.7,11.16-53.31,11.16
	c-11.6,0-75.64-4.91-78.55-3.57s4.46,11.16,2.45,20.98c-2.01,9.82,82.75,18.74,98.41,17.47c15.66-1.27,60.9-24,69.8-33.58
	C1087.51,411.76,1078.6,394.3,1078.6,394.3z"/>
<linearGradient id="SVGID_4_" gradientUnits="userSpaceOnUse" x1="858.9761" y1="439.2184" x2="901.2172" y2="439.2184">
	<stop  offset="0" style="stop-color:#F2C8AA"/>
	<stop  offset="1" style="stop-color:#F2DAD4"/>
</linearGradient>
<path class="st7" d="M921.25,435.99c-0.7-4.5-12.11-3.2-15.59-5.29c-3.48-2.09-11.41-8.77-15.31-7.1c-3.9,1.67-8.49,3.62-10.44,8.35
	c-1.95,4.73-1.03,22.76,9.75,23.09c10.78,0.33,21.16-0.95,24.86-1.11C918.24,453.77,922,440.83,921.25,435.99z"/>
<path class="st6" d="M1122.83,409.21c-8.51-6.52-23.38-16.88-29.49-16.88c-6.11,0-18.86-0.12-32.67,12.95
	c-13.81,13.08-80.21,68.05-100.13,81.87c-19.92,13.81-39.57,26.56-43.29,38.25s24.17,41.7,35.06,46.21
	c10.89,4.52,44.62,15.14,53.12,20.72c8.5,5.58,14.87,14.87,18.06,14.08c3.19-0.8,13.55-7.7,13.81-16.47
	c0.27-8.76,0.27-27.89,12.75-41.17c12.48-13.28,38.78-18.59,50.73-22.04c11.95-3.45,39.31-19.39,44.35-41.7
	c5.05-22.31,12.67-32.72,14.56-35.14c1.88-2.42,4.04-4.84,2.33-7.09C1160.32,440.55,1122.83,409.21,1122.83,409.21z"/>
<path class="st8" d="M1161.9,441.47c4.26,3.78,6.38,12.06,18.44,7.8s29.79-9.93,37.59-29.79s2.6-36.88-7.56-43.97
	c-10.17-7.09-31.68-26-44.91-21.51c-13.24,4.49-5.44,23.17-1.18,26.24c4.26,3.07,8.75,17.26,7.8,20.09
	C1171.12,403.18,1161.9,441.47,1161.9,441.47z"/>
<linearGradient id="SVGID_5_" gradientUnits="userSpaceOnUse" x1="1137.5728" y1="434.1039" x2="1178.1011" y2="434.1039">
	<stop  offset="0" style="stop-color:#F2C8AA"/>
	<stop  offset="1" style="stop-color:#F2DAD4"/>
</linearGradient>
<path class="st9" d="M1178.1,431.97l-17.14,13.34c0,0-13.98-3.27-20.56-6.67c-6.58-3.4,0-9.37,2.88-11.01
	c2.88-1.64,26.52-4.73,26.52-4.73L1178.1,431.97z"/>
<path class="st10" d="M1167.7,368.62c-6.33-0.01-13.29,6.3-13.62,8.83s1.33,6.66-4.05,8.18c-5.39,1.52-12.2,3.05-12.2,4.52
	c0,1.47,1.81,5.13-0.68,6.41c-2.49,1.28-13.81,7.71-14.31,12.66c-1,9.9,7.33,24.42,24.11,23.19c16.78-1.22,22.04-5.07,22.04-5.07
	s0.56,9.04,11.16,6.7c10.6-2.34,15.63-8.82,12.05-12.28c-3.57-3.46-5.8-7.14-9.15-5.92c-3.35,1.23-7.37,4.91-9.38,3.35
	c-2.01-1.56,5.71-10.02,7.74-13.15c2.04-3.13-4.07-5.18-6.11-9.48c-2.04-4.3,4.7-9.94,2.97-14.95
	C1176.56,376.59,1175.6,368.63,1167.7,368.62z"/>
<path class="st8" d="M1174.87,414.9c0,0-8.11,8.23-15.41,8.74s-21.89,1.02-26.81-3.56c-4.92-4.58-4.97-14.27-7.78-14.68
	c-3.73-0.54-8.85,0.76-10.72,7.04c-1.87,6.28,6.67,23.35,16.46,24.78c9.79,1.42,33.98-5.86,38.37-9.89
	c4.39-4.03,10.6-9.74,10.6-9.74L1174.87,414.9z"/>
<path class="st6" d="M920.44,433.99c-2.21,0.72-10.82,19.76-6.66,22.88c4.16,3.12,25.58,12.27,34.94,14.77
	c9.36,2.5,31.6,13.16,62.21,17.77c30.6,4.61,90.56,21.38,105.65,13.83c15.09-7.55,22.22-21.63,16.35-33.66
	c-5.87-12.04-76.54-28.37-94.43-23.3s-40.55,2.09-54.26,0C970.53,444.19,926.11,432.14,920.44,433.99z"/>
<path class="st10" d="M877.25,425.74c-6.47,2.8-11.86,7.11-12.09,8.32c-0.25,1.32,0.79,4.55,4.3,2.88c6.28-3,14.88-6.5,14.88-8.67
	C884.35,426.11,881.24,424.02,877.25,425.74z"/>
<path class="st10" d="M880.08,430.88c-6.47,2.8-10.77,6.05-11.63,6.93c-1.2,1.23-0.71,5.61,5.04,2.91
	c6.3-2.96,13.68-5.14,13.68-7.31C887.17,431.24,884.06,429.16,880.08,430.88z"/>
<path class="st10" d="M882.9,436.02c-6.47,2.8-11.49,5.23-11.42,6.46c0.07,1.23,2.25,3.93,4.83,3.38
	c6.81-1.44,13.68-5.14,13.68-7.31S886.89,434.3,882.9,436.02z"/>
<path class="st3" d="M841.81,422.39c-0.05,0-0.1,0-0.15-0.01l-174.09-27.09c-0.43-0.07-0.77-0.4-0.83-0.83l-7.23-45.44
	c-0.09-0.55,0.29-1.06,0.83-1.15c0.55-0.09,1.06,0.29,1.14,0.83l7.11,44.72l173.37,26.98c0.55,0.09,0.92,0.6,0.83,1.14
	C842.72,422.03,842.29,422.39,841.81,422.39z"/>
<path class="st3" d="M609.37,408.84c-0.03,0-0.06,0-0.08,0l-78.64-6.74c-0.55-0.05-0.96-0.53-0.91-1.08
	c0.05-0.55,0.53-0.96,1.08-0.91l78.43,6.72l38.26-13.3l11.91-44.53l-22.63-40.65l-59.63-66.05c-0.37-0.41-0.34-1.04,0.07-1.41
	c0.41-0.37,1.04-0.34,1.41,0.07l59.71,66.13c0.05,0.06,0.09,0.12,0.13,0.18l22.88,41.11c0.13,0.23,0.16,0.49,0.09,0.74l-12.15,45.44
	c-0.09,0.32-0.32,0.58-0.64,0.69l-38.96,13.54C609.59,408.82,609.48,408.84,609.37,408.84z"/>
<path class="st3" d="M588.28,578.63c-0.19,0-0.38-0.05-0.54-0.16c-0.46-0.3-0.59-0.92-0.29-1.38l45.71-70.35l30.9-70.67
	l-14.63-36.39l0.63,41.4c0,0.22-0.06,0.43-0.19,0.61l-37.89,51.83c-0.04,0.06-0.1,0.12-0.15,0.17l-69.35,60.05
	c-0.41,0.36-1.05,0.32-1.41-0.1c-0.36-0.42-0.32-1.05,0.1-1.41l69.26-59.98l37.63-51.47l-0.71-46.45c-0.01-0.48,0.33-0.9,0.8-1
	c0.48-0.09,0.95,0.16,1.13,0.61l16.8,41.78c0.1,0.25,0.1,0.53-0.01,0.77l-31.1,71.13c-0.02,0.05-0.05,0.1-0.08,0.14l-45.75,70.42
	C588.93,578.47,588.61,578.63,588.28,578.63z"/>
<path class="st3" d="M667.71,395.3h-19.38c-0.36,0-0.68-0.19-0.86-0.49c-0.18-0.31-0.18-0.69-0.01-0.99l28.97-51.62l-68.91-137.11
	c-0.25-0.49-0.05-1.09,0.44-1.34c0.5-0.25,1.09-0.05,1.34,0.44l69.14,137.57c0.1,0.19,0.14,0.42,0.09,0.64l-9.85,52.08
	C668.61,394.96,668.19,395.3,667.71,395.3z M650.04,393.3h16.84l8.56-45.26L650.04,393.3z"/>
<path class="st3" d="M649.05,442.08c-0.12,0-0.25-0.02-0.37-0.07c-0.51-0.2-0.76-0.79-0.56-1.3l18.67-46.79
	c0.18-0.46,0.67-0.71,1.15-0.6c0.48,0.11,0.81,0.55,0.78,1.04l-2.58,41.78c-0.03,0.55-0.5,0.97-1.06,0.94
	c-0.55-0.03-0.97-0.51-0.94-1.06l2.2-35.55l-16.35,40.99C649.82,441.84,649.44,442.08,649.05,442.08z"/>
<path class="st11" d="M588.37,329.33l139.4,7.73c0,0-52.54,1.64-72.61,0.53C635.08,336.48,588.37,329.33,588.37,329.33z"/>
<path class="st11" d="M1049.58,498.41l139.61,0.87c0,0-52.4,4.23-72.5,4.1S1049.58,498.41,1049.58,498.41z"/>
<path class="st11" d="M774.89,636.25l65.67,0.41c0,0-24.65,1.99-34.1,1.93S774.89,636.25,774.89,636.25z"/>
<path class="st11" d="M437.72,434.89l139.4,7.73c0,0-52.54,1.64-72.61,0.53C484.44,442.04,437.72,434.89,437.72,434.89z"/>
<path class="st11" d="M571.22,336.86l36.19,2.01c0,0-13.64,0.43-18.85,0.14S571.22,336.86,571.22,336.86z"/>
<path class="st11" d="M513.79,453.98l36.19,2.01c0,0-13.64,0.43-18.85,0.14C525.92,455.83,513.79,453.98,513.79,453.98z"/>
</svg>
