<?xml version="1.0" encoding="utf-8"?>
<!-- Generator: Adobe Illustrator 23.0.0, SVG Export Plug-In . SVG Version: 6.00 Build 0)  -->
<svg version="1.1" id="Layer_2" xmlns="http://www.w3.org/2000/svg" xmlns:xlink="http://www.w3.org/1999/xlink" x="0px" y="0px"
	 viewBox="0 0 970.48 673.18" style="enable-background:new 0 0 970.48 673.18;" xml:space="preserve">
<style type="text/css">
	.st0{fill:#2E9346;}
	.st1{fill:url(#SVGID_1_);}
	.st2{fill:url(#SVGID_2_);}
	.st3{fill:#FFFFFF;}
	.st4{fill:#1C2B6B;}
	.st5{fill:url(#SVGID_3_);}
	.st6{fill:url(#SVGID_4_);}
	.st7{fill:url(#SVGID_5_);}
	.st8{fill:#A37FDD;}
	.st9{fill:url(#SVGID_6_);}
	.st10{fill:url(#SVGID_7_);}
	.st11{fill:url(#SVGID_8_);}
	.st12{fill:url(#SVGID_9_);}
	.st13{fill:url(#SVGID_10_);}
</style>
<path class="st0" d="M777.12,218.36c-0.51-3.29-3.59-5.53-6.88-5.02c-3.29,0.51-5.53,3.59-5.02,6.88c0.86,5.61,1.96,23.18-4.1,30.25
	c-1.31,1.53-2.9,2.45-4.89,2.81l0.55-33.47c0.08-4.86-3.84-8.85-8.7-8.85c-4.89,0-8.82,4.03-8.7,8.92l1.57,63.51
	c-2.09-0.34-3.74-1.26-5.09-2.84c-6.06-7.07-4.96-24.64-4.1-30.25c0.51-3.29-1.73-6.37-5.02-6.88c-3.29-0.51-6.37,1.73-6.88,5.02
	c-0.43,2.76-3.91,27.37,6.84,39.94c3.7,4.32,8.71,6.77,14.55,7.15l0.68,27.65h13.14l0.95-57.76c5.71-0.45,10.61-2.88,14.25-7.13
	C781.04,245.73,777.56,221.12,777.12,218.36z"/>
<path class="st0" d="M216.01,272.2c-0.33-2.09-2.29-3.53-4.39-3.2c-2.09,0.33-3.53,2.29-3.2,4.39c0.55,3.58,1.25,14.78-2.61,19.28
	c-0.84,0.98-1.85,1.56-3.12,1.79l0.35-21.33c0.05-3.1-2.45-5.64-5.55-5.64c-3.12,0-5.62,2.57-5.55,5.69l1,40.49
	c-1.33-0.21-2.38-0.8-3.25-1.81c-3.87-4.51-3.16-15.71-2.61-19.28c0.33-2.09-1.11-4.06-3.2-4.39c-2.1-0.33-4.06,1.1-4.39,3.2
	c-0.28,1.76-2.49,17.45,4.36,25.46c2.36,2.76,5.55,4.32,9.28,4.56l0.44,17.62h8.38l0.61-36.82c3.64-0.28,6.77-1.84,9.08-4.55
	C218.51,289.65,216.29,273.96,216.01,272.2z"/>
<linearGradient id="SVGID_1_" gradientUnits="userSpaceOnUse" x1="497.1318" y1="217.5728" x2="497.1318" y2="458.4918">
	<stop  offset="0" style="stop-color:#E5E5E5"/>
	<stop  offset="0.4764" style="stop-color:#F4F4F4"/>
	<stop  offset="1" style="stop-color:#FFFFFF"/>
</linearGradient>
<ellipse class="st1" cx="497.13" cy="440.53" rx="433.38" ry="153.42"/>
<g>
	<linearGradient id="SVGID_2_" gradientUnits="userSpaceOnUse" x1="583.7539" y1="270.2455" x2="628.6711" y2="294.8228">
		<stop  offset="0" style="stop-color:#A50404"/>
		<stop  offset="1" style="stop-color:#E64D4E"/>
	</linearGradient>
	<path class="st2" d="M603.57,311.55c-1.59,0-3.21-0.44-4.65-1.36c-4.02-2.57-5.2-7.92-2.62-11.94l20.66-32.3
		c2.57-4.02,7.92-5.2,11.94-2.62c4.02,2.57,5.2,7.92,2.62,11.94l-20.66,32.3C609.22,310.14,606.43,311.55,603.57,311.55z"/>
	
		<ellipse transform="matrix(0.9487 -0.3162 0.3162 0.9487 -45.7159 213.2784)" class="st3" cx="634.29" cy="247.5" rx="30.7" ry="30.7"/>
	<path class="st4" d="M658.72,255.97c0,6.01-4.87,10.87-10.87,10.87c-6.01,0-10.87-4.87-10.87-10.87c0-6.01,4.87-10.87,10.87-10.87
		C653.85,245.1,658.72,249.97,658.72,255.97z"/>
	<linearGradient id="SVGID_3_" gradientUnits="userSpaceOnUse" x1="608.8467" y1="224.3867" x2="653.7638" y2="248.9639">
		<stop  offset="0" style="stop-color:#A50404"/>
		<stop  offset="1" style="stop-color:#E64D4E"/>
	</linearGradient>
	<path class="st5" d="M668.76,246.93c0.22,4.08-0.26,8.01-1.33,11.7c-0.51,1.76-2.3,2.82-4.1,2.48l-61.4-11.66
		c-1.81-0.34-3.08-2.01-2.91-3.85c1.7-18.32,17.52-32.54,36.47-31.67C653.3,214.75,667.8,229.13,668.76,246.93z"/>
</g>
<linearGradient id="SVGID_4_" gradientUnits="userSpaceOnUse" x1="450.3851" y1="200.322" x2="467.0058" y2="300.6194">
	<stop  offset="0" style="stop-color:#A50404"/>
	<stop  offset="1" style="stop-color:#E64D4E"/>
</linearGradient>
<path class="st6" d="M603.31,294.89H336.27c-5.98,0-10.82,4.84-10.82,10.82v24.1c0,1.41,1.14,2.55,2.55,2.55h283.58
	c1.41,0,2.55-1.14,2.55-2.55v-24.1C614.13,299.74,609.29,294.89,603.31,294.89z"/>
<linearGradient id="SVGID_5_" gradientUnits="userSpaceOnUse" x1="357.4239" y1="251.7183" x2="551.4724" y2="251.7183">
	<stop  offset="0" style="stop-color:#9A3AED"/>
	<stop  offset="1" style="stop-color:#5D1EAF"/>
</linearGradient>
<path class="st7" d="M541.47,285.35h-3.84v-19.48c0-49.78-40.36-90.14-90.14-90.14c-42.36,0-90.06,24.58-90.06,86.53
	c0,40.91,30.18,65.45,65.04,65.45c19.6,0,37.17-8.66,49.11-22.35h69.89c5.52,0,10-4.48,10-10
	C551.47,289.83,546.99,285.35,541.47,285.35z"/>
<path class="st8" d="M425.67,294.89c-15.27,0-31.71-10.13-31.71-32.35c0-26.38,16.67-43.43,42.46-43.43
	c23.08,0,41.86,18.78,41.86,41.86c0,4.04-3.27,7.31-7.31,7.31c-4.04,0-7.31-3.28-7.31-7.31c0-15.01-12.22-27.23-27.23-27.23
	c-10.39,0-27.83,3.74-27.83,28.8c0,16.87,14.23,17.72,17.08,17.72c7.07,0,12.83-5.75,12.83-12.83c0-3.71-1.61-7.24-4.41-9.68
	c-3.05-2.65-3.37-7.27-0.71-10.32c2.65-3.04,7.27-3.37,10.32-0.71c5.99,5.22,9.43,12.77,9.43,20.71
	C453.12,282.58,440.8,294.89,425.67,294.89z"/>
<g>
	<linearGradient id="SVGID_6_" gradientUnits="userSpaceOnUse" x1="618.4576" y1="242.0431" x2="585.4911" y2="292.7607">
		<stop  offset="0" style="stop-color:#A50404"/>
		<stop  offset="1" style="stop-color:#E64D4E"/>
	</linearGradient>
	<path class="st9" d="M577.55,313.87c-1.59,0-3.21-0.44-4.65-1.36c-4.02-2.57-5.2-7.92-2.62-11.94l20.66-32.3
		c2.57-4.02,7.92-5.2,11.94-2.62c4.02,2.57,5.2,7.92,2.62,11.94l-20.66,32.3C583.19,312.46,580.4,313.87,577.55,313.87z"/>
	
		<ellipse transform="matrix(0.2298 -0.9732 0.9732 0.2298 225.3799 784.4117)" class="st3" cx="608.26" cy="249.82" rx="30.7" ry="30.7"/>
	<path class="st4" d="M630.86,257.11c0,6.01-4.87,10.87-10.87,10.87c-6.01,0-10.87-4.87-10.87-10.87c0-6.01,4.87-10.87,10.87-10.87
		C625.99,246.24,630.86,251.11,630.86,257.11z"/>
	<linearGradient id="SVGID_7_" gradientUnits="userSpaceOnUse" x1="587.1671" y1="198.7582" x2="603.3278" y2="235.9583">
		<stop  offset="0" style="stop-color:#A50404"/>
		<stop  offset="1" style="stop-color:#E64D4E"/>
	</linearGradient>
	<path class="st10" d="M642.74,249.25c0.22,4.08-0.26,8.01-1.33,11.7c-0.51,1.76-2.3,2.82-4.1,2.48l-61.4-11.66
		c-1.81-0.34-3.08-2.01-2.91-3.85c1.7-18.32,17.52-32.54,36.47-31.67C627.28,217.07,641.78,231.45,642.74,249.25z"/>
</g>
<g>
	<linearGradient id="SVGID_8_" gradientUnits="userSpaceOnUse" x1="406.3558" y1="125.5378" x2="498.4853" y2="125.5378">
		<stop  offset="0" style="stop-color:#9A3AED"/>
		<stop  offset="1" style="stop-color:#5D1EAF"/>
	</linearGradient>
	<path class="st11" d="M498.49,135.15c0,1.84-0.82,3.66-2.39,4.87c-2.69,2.08-6.55,1.58-8.62-1.11
		c-8.43-10.91-21.15-17.17-34.92-17.17c-13.91,0-26.72,6.36-35.14,17.46c-2.05,2.7-5.91,3.23-8.62,1.18
		c-2.7-2.05-3.23-5.91-1.18-8.62c10.77-14.19,27.15-22.32,44.94-22.32c17.61,0,33.88,8,44.66,21.96
		C498.07,132.52,498.49,133.84,498.49,135.15z"/>
	<linearGradient id="SVGID_9_" gradientUnits="userSpaceOnUse" x1="428.8399" y1="150.2661" x2="476.001" y2="150.2661">
		<stop  offset="0" style="stop-color:#9A3AED"/>
		<stop  offset="1" style="stop-color:#5D1EAF"/>
	</linearGradient>
	<path class="st12" d="M476,154.46c0,1.84-0.82,3.66-2.39,4.87c-2.69,2.07-6.55,1.58-8.62-1.11c-3.02-3.91-7.58-6.15-12.51-6.15
		c-4.98,0-9.57,2.28-12.59,6.26c-2.05,2.7-5.91,3.23-8.62,1.18c-2.7-2.05-3.23-5.91-1.18-8.62c5.36-7.07,13.52-11.12,22.38-11.12
		c8.77,0,16.88,3.99,22.24,10.94C475.58,151.83,476,153.15,476,154.46z"/>
	<linearGradient id="SVGID_10_" gradientUnits="userSpaceOnUse" x1="389.6965" y1="100.2176" x2="515.1443" y2="100.2176">
		<stop  offset="0" style="stop-color:#9A3AED"/>
		<stop  offset="1" style="stop-color:#5D1EAF"/>
	</linearGradient>
	<path class="st13" d="M515.14,113.84c0,1.84-0.82,3.66-2.39,4.87c-2.69,2.07-6.55,1.58-8.62-1.11
		c-12.43-16.1-31.21-25.34-51.53-25.34c-20.53,0-39.43,9.39-51.85,25.76c-2.05,2.7-5.91,3.23-8.62,1.18
		c-2.71-2.05-3.23-5.91-1.18-8.62c14.77-19.46,37.24-30.63,61.65-30.63c24.16,0,46.49,10.98,61.26,30.12
		C514.73,111.21,515.14,112.53,515.14,113.84z"/>
</g>
</svg>
