<?xml version="1.0" encoding="utf-8"?>
<!-- Generator: Adobe Illustrator 21.0.0, SVG Export Plug-In . SVG Version: 6.00 Build 0)  -->
<svg version="1.1" id="Layer_1" xmlns="http://www.w3.org/2000/svg" xmlns:xlink="http://www.w3.org/1999/xlink" x="0px" y="0px"
	 viewBox="0 0 414.2 444.6" style="enable-background:new 0 0 414.2 444.6;" xml:space="preserve">
<style type="text/css">
	.st0{fill:#EAAB42;}
	.st1{fill:none;}
</style>
<g>
	<g>
		<path class="st0" d="M207.7,368.5c-15.6,0-31.4-2.2-47.2-6.6l-0.7-0.2l-0.7-0.3c-1.2-0.4-2.7-0.9-4.3-1.4
			c-2.2-0.7-4.7-1.4-7.3-2.4c-13.1-4.5-24.8-10.5-37.7-17.3l-1.2-0.6l-1.1-0.8c-1.5-1.1-3.5-2.2-5.6-3.5l-0.6-0.3
			c-1.2-0.6-2.4-1.4-3.5-2.2c-10.3-6.6-20.2-13.9-29.4-21.5l-0.6-0.5l-0.5-0.5c-0.7-0.7-1.8-1.6-2.9-2.5c-1.6-1.3-3.3-2.7-5.1-4.4
			c-8.2-6.8-15.5-14.2-22.6-21.2c-1.5-1.5-3-3-4.5-4.4l-0.8-0.8c-0.9-1-1.8-2.1-2.7-3.1c-1.3-1.5-2.4-2.9-3.4-3.7l-1-0.9l-0.9-1.1
			c-1.6-1.9-3.2-3.8-4.8-5.7c-3.2-3.9-6.6-7.9-9.9-12l-0.3-0.4c-2.6-3.4-6.4-8.5-8.1-15.8L0,232.3v-10.7l0.8-2.6
			c2.4-8,6.8-13.9,10.5-18.2l0.9-1l0.9-0.8c0.2-0.3,0.7-0.9,1.1-1.4c0.9-1.1,2-2.6,3.3-4c22.8-26.8,48.2-49.9,75.4-68.6l0.2-0.1
			c31.8-21.2,62.8-33.6,94.7-37.7l0.8-0.1l0.8,0c1.1,0,2.6-0.2,4.1-0.4c3.1-0.4,6.8-0.8,11-0.6c16.7-0.3,33.5,2,50,6.8l1.2,0.4
			c1.1,0.4,2.6,0.8,4.1,1.3c2.3,0.7,5,1.4,7.8,2.5c13.2,5.1,25.3,10.8,37,17.6c2.1,1.2,4,2.4,5.7,3.4c1.5,0.9,2.8,1.8,4.1,2.5l1,0.6
			c10.9,7,21.3,14.6,31,22.5c2,1.6,3.8,3.2,5.4,4.6c1.1,1,2.2,2,3.2,2.8l0.2,0.2c8.8,7.5,16.9,15.6,24.6,23.4l3.9,3.9l0.8,1.1
			c1.6,2.1,3.7,4.3,5.4,5.9l0.8,0.8l0.7,0.9c1.9,2.4,3.9,4.8,6,7.2c2.5,3,5.2,6.2,7.8,9.5l0.1,0.1c2.4,3.1,6.5,8.4,8.3,15.9l0.5,2.1
			v9.8l-0.3,1.8c-1.6,8-5.8,13.2-8.6,16.7c-0.6,0.7-1.1,1.3-1.4,1.8l-0.7,1l-0.9,0.9c-0.5,0.5-1.1,1.3-1.8,2.2
			c-1,1.2-2.2,2.8-3.6,4.3c-10.4,12.4-22.1,24.6-34.8,36.3c-9.9,9.1-20.9,18.1-34.8,28.4l-0.5,0.3c-20.1,14.1-39.8,24.5-60.2,31.9
			c-12.5,4.5-24.6,7.5-37.1,9.1l-1.6,0.2c-4.9,0.7-10.4,1.4-16.3,1.4C210.3,368.5,209,368.5,207.7,368.5z M171.1,326.5
			c13.4,3.7,26.8,5.4,39.8,5l0.5,0c3.5,0,7.4-0.5,11.5-1.1l1.7-0.2c9.8-1.3,19.4-3.7,29.4-7.3c17.2-6.2,33.9-15.1,51.2-27.2
			c12.7-9.5,22.8-17.8,31.7-25.9c11.8-10.9,22.2-21.8,31.8-33.2l0.8-0.9c0.5-0.5,1.1-1.3,1.8-2.2c0.9-1.1,1.9-2.5,3.2-3.8
			c0.7-0.9,1.3-1.7,1.9-2.4c-0.1-0.1-0.1-0.2-0.2-0.3c-2.3-2.9-4.6-5.6-7-8.5c-1.9-2.3-3.8-4.6-5.8-7c-2.4-2.3-5.2-5.2-7.8-8.6l-2-2
			c-7.5-7.6-14.7-14.7-22.3-21.2c-1.6-1.3-3-2.6-4.3-3.8c-1.3-1.2-2.6-2.3-3.7-3.2l-0.2-0.2c-8.5-7-17.7-13.6-27.3-19.9
			c-1.9-1.1-3.7-2.2-5.2-3.2c-1.5-0.9-2.8-1.8-4.1-2.5l-0.2-0.1c-10.1-5.8-20.5-10.8-32-15.2l-0.2-0.1c-1.2-0.5-2.8-0.9-4.5-1.4
			c-1.8-0.5-3.8-1.1-6-1.9c-13.1-3.8-26-5.5-39.1-5.2l-0.8,0l-0.8,0c-1.2-0.1-3.1,0.2-5.1,0.4c-1.8,0.2-3.8,0.5-6,0.6
			c-25.9,3.4-51.4,13.8-78.1,31.6c-25,17.1-47.3,37.5-68.4,62.3l-0.7,0.8c-0.2,0.2-0.7,0.9-1.1,1.4c-1.1,1.5-2.6,3.5-4.7,5.5
			c-0.4,0.5-0.8,1-1.2,1.5c0.2,0.2,0.3,0.4,0.5,0.6c2.9,3.7,5.9,7.3,9.1,11.1c1.4,1.6,2.7,3.3,4.1,4.9c2.4,2.2,4.2,4.5,5.9,6.5
			c0.5,0.6,1,1.2,1.6,1.9c1.4,1.4,2.8,2.7,4.1,4.1c7,7,13.6,13.6,20.7,19.5l0.7,0.5l0.6,0.6c0.7,0.7,1.8,1.6,3,2.6
			c1.4,1.1,3,2.4,4.6,3.9c8.2,6.7,17,13.1,26.1,18.9l1.7,1.1c2.5,1.4,5.2,3,8,4.9c11.5,6.1,21.3,11.1,31.6,14.6l0.9,0.3
			c1.3,0.5,3,1,4.8,1.6C167.2,325.2,169.1,325.8,171.1,326.5z"/>
	</g>
	<g>
		<path class="st0" d="M206.4,2.6c0.8-0.1,1.7-0.1,2.5,0.1c7.8,2.2,10.4,5.4,10.5,13.3c0.1,6.5,0,13,0,19.5c0,1.9-0.1,3.7-0.9,5.5
			c-1.4,2.6-2.9,5.2-5.8,6.6c-8.8,4.1-17.6-1.2-17.9-10.9c-0.3-7.8-0.2-15.6,0-23.4c0-0.3,0-0.6,0.1-0.8
			C195.9,6.5,200.2,3.6,206.4,2.6"/>
	</g>
	<g>
		<path class="st0" d="M210.1,447.1h-6c-6.9-2.2-9.3-5.5-9.3-12.9c0-7.7-0.4-15.5,0.3-23.2c1.5-5,4.8-8.2,9.7-9.7
			c8.6-0.8,14.6,4.2,14.6,12.8c0.1,7.9,0.4,15.9-0.2,23.8C217.8,442.6,215.3,446.2,210.1,447.1"/>
	</g>
	<g>
		<path class="st0" d="M107.8,40.7c1.6-4.2,4.5-7,8.9-8.3c5.7-0.4,9.8,2,12.5,7.1c3.5,6.5,7.3,12.9,11,19.3
			c2.1,10.3-4.6,16.6-14.9,14.1c-2.8-1.5-4.7-3.8-6.2-6.5c-2.9-5.2-5.9-10.4-9-15.5C108.2,47.6,107.3,44.3,107.8,40.7"/>
	</g>
	<g>
		<path class="st0" d="M306.8,417.7c-1.3,1.3-2.5,2.5-3.8,3.8c-8.1,2.9-12.4,1.3-16.8-6.2c-3.3-5.7-6.7-11.3-10.1-17
			c-1.8-4-2.3-8,0.2-12c3-4.8,7.8-6.2,14.7-4.2c2.5,1.7,4.3,3.9,5.8,6.6c2.9,5.2,5.8,10.4,8.9,15.4
			C308.5,408.5,309.2,412.9,306.8,417.7"/>
	</g>
	<g>
		<path class="st0" d="M277.8,66c-3.2-3.8-3.8-8-2.5-12.7c4-6.8,8-13.6,12.1-20.4c2.7-4.4,6.8-6,11.8-5.7c4.9,0.2,8.7,3.6,9.2,9
			c0.3,3.6-0.7,6.8-2.6,9.9c-3.2,5.2-6.1,10.6-9.2,15.8C291.8,69.9,285.4,71.3,277.8,66"/>
	</g>
	<g>
		<path class="st0" d="M137.6,385.6c3.1,4.8,2.2,9.5-0.3,14.2c-3.1,5.2-6.4,10.3-9.3,15.7c-2.8,5.3-6.9,7.9-13,7.5
			c-4.3-0.3-7.1-2.5-8.4-6.7c-1.5-4.5-0.5-8.4,1.9-12.4c3.2-5.1,6.1-10.5,9.2-15.7C122.8,379.5,130.4,378.5,137.6,385.6"/>
	</g>
	<g>
		<path class="st0" d="M256.5,172c3.8-0.3,7.1,0.8,10.1,3c2.5,3.1,3.3,6.6,3.2,10.6c-0.1,12.9,0,25.8,0.1,38.7v14
			c0,10.4-0.2,20.8-0.1,31.2c0,5-1.3,9.2-6,11.7c-4.9,2.6-9.1,1.1-13.3-1.9c-4.1-3-8.3-5.9-13.2-7.8c-3.2-2-6.7-3.6-10.3-4.5
			c-10-4.3-20.6-5.9-31.4-6.5c-3.8-0.2-7.6,0.1-11.4-0.1c-2.6-0.2-2.9,0.9-2.9,3.1c0.1,7,0.1,14,0,21c0,7.8-4.4,12.8-11.1,12.8
			c-6.6,0-10.9-4.9-11-12.5c0-0.5-0.1-1-0.1-1.5c0-4.7,0-9.3,0-14c0-0.2,0.1-0.5,0.1-0.7c0-2.6,0.7-5.5-0.3-7.6s-4.3-1.5-6.6-2.2
			c-8.4-2.9-14.4-8.5-18.9-15.9c-1.5-3.6-2.7-7.4-3.6-11.2c-0.8-12.7,3.2-23.3,13.6-31c5.5-4.1,11.9-6.1,18.7-6.4
			c2-0.1,3.9-0.1,5.9-0.1c4.7,0,9.3,0,14,0c25.4,1.5,48.8-4.2,69.6-19.4C253.1,173.5,254.8,172.9,256.5,172"/>
	</g>
	<g>
		<rect x="0" y="2.5" class="st1" width="414.2" height="444.6"/>
	</g>
</g>
</svg>
