<?xml version="1.0" encoding="utf-8"?>
<!-- Generator: Adobe Illustrator 21.0.0, SVG Export Plug-In . SVG Version: 6.00 Build 0)  -->
<svg version="1.1" id="Layer_1" xmlns="http://www.w3.org/2000/svg" xmlns:xlink="http://www.w3.org/1999/xlink" x="0px" y="0px"
	 viewBox="0 0 30 30" style="enable-background:new 0 0 30 30;" xml:space="preserve">
<style type="text/css">
	.st0{fill:#FFFFFF;}
</style>
<g>
	<path class="st0" d="M5.4,8.4c0-0.3-0.1-0.6-0.2-0.9l1.4-0.9c0.4,0.5,1.1,0.8,1.8,0.8c0.9,0,1.7-0.5,2.1-1.2l0.9,0.3
		c0,0.1,0,0.3,0,0.5c0,1.6,1.3,3,3,3c0.8,0,1.6-0.4,2.1-0.9l1.9,1.3c-0.1,0.2-0.1,0.4-0.1,0.6c0,1.1,0.9,2,2,2c1.1,0,2-0.9,2-2
		c0-0.4-0.2-0.8-0.4-1.2L24,6.8c-0.3-0.2-0.5-0.4-0.8-0.6L21,9.1c-0.2-0.1-0.5-0.2-0.8-0.2c-0.5,0-1,0.2-1.3,0.5L17,8.1
		c0.2-0.4,0.3-0.8,0.3-1.2c0-1.6-1.3-3-3-3c-1.1,0-2.1,0.6-2.6,1.6l-0.9-0.3c0-0.1,0-0.2,0-0.3c0-1.4-1.1-2.5-2.5-2.5
		S5.9,3.6,5.9,4.9c0,0.3,0.1,0.6,0.2,0.9L4.7,6.7C4.3,6.2,3.7,5.9,3,5.9C1.6,5.9,0.5,7,0.5,8.4s1.1,2.5,2.5,2.5S5.4,9.7,5.4,8.4
		L5.4,8.4z"/>
	<path class="st0" d="M3.9,18.4l-0.7-0.7c-0.4,0.4-0.7,0.9-1,1.4l0.9,0.4C3.3,19.1,3.6,18.7,3.9,18.4z"/>
	<path class="st0" d="M6.6,16.5c0.4-0.1,0.9-0.2,1.3-0.3v-1c-0.6,0-1.1,0.2-1.7,0.3L6.6,16.5z"/>
	<path class="st0" d="M5.7,16.9L5.3,16c-0.5,0.3-1,0.6-1.4,1l0.7,0.7C4.9,17.4,5.3,17.1,5.7,16.9z"/>
	<path class="st0" d="M10.6,15.6c-0.5-0.2-1.1-0.3-1.7-0.3v1c0.5,0,0.9,0.1,1.3,0.3L10.6,15.6z"/>
	<path class="st0" d="M1.5,21.7h1c0-0.5,0.1-0.9,0.3-1.3L1.8,20C1.7,20.5,1.6,21.1,1.5,21.7z"/>
	<path class="st0" d="M9.4,14.4v-5h-2v5c0.3,0,0.7-0.1,1-0.1C8.7,14.3,9,14.3,9.4,14.4z"/>
	<path class="st0" d="M19.2,14.8h2v4.9h-2V14.8z"/>
	<path class="st0" d="M14.5,19.1c-0.3-0.5-0.6-1-1-1.4l-0.7,0.7c0.3,0.3,0.5,0.7,0.7,1.1L14.5,19.1z"/>
	<path class="st0" d="M11.1,16.9c0.4,0.2,0.8,0.5,1.1,0.7l0.7-0.7c-0.4-0.4-0.9-0.7-1.4-1L11.1,16.9z"/>
	<path class="st0" d="M27.1,9.4h-2v10.3h1.6l0.4,0.2V9.4z"/>
	<path class="st0" d="M18.2,20.7h7.9v1h-7.9V20.7z"/>
	<path class="st0" d="M18.2,22.7h7.9v1h-7.9V22.7z"/>
	<path class="st0" d="M29.9,22l-2.8-1.1v2.5l2.8-1.1c0.1,0,0.1-0.1,0.1-0.2C30,22.1,30,22,29.9,22L29.9,22z"/>
	<path class="st0" d="M14,20.4c0.1,0.4,0.2,0.9,0.3,1.3h1c0-0.6-0.2-1.1-0.3-1.7L14,20.4z"/>
	<path class="st0" d="M13.3,22.2c0-2.7-2.2-4.9-4.9-4.9s-4.9,2.2-4.9,4.9v0.5H1.5c0.3,3.6,3.2,6.4,6.9,6.4s6.6-2.8,6.9-6.4h-1.9
		L13.3,22.2z M8.4,27.6c-0.8,0-1.5-0.7-1.5-1.5c0-0.4,0.2-0.8,0.5-1.1v-3.9c0-0.9,0.4-1.7,1-2.4c0.6,0.6,1,1.5,1,2.4V25
		c0.3,0.3,0.5,0.7,0.5,1.1C9.9,26.9,9.2,27.6,8.4,27.6z"/>
	<path class="st0" d="M16.3,22.2c0,0.5-0.1,1-0.1,1.5h1.1v-3h-1.1C16.2,21.2,16.3,21.7,16.3,22.2z"/>
	<path class="st0" d="M13.3,16c0.8,0.6,1.5,1.4,2,2.3v-6.5h-2V16z"/>
	<path class="st0" d="M26.1,6.4c1.6,0,3-1.3,3-3s-1.3-3-3-3s-3,1.3-3,3S24.5,6.4,26.1,6.4z M26.1,2c0.8,0,1.5,0.7,1.5,1.5
		s-0.7,1.5-1.5,1.5s-1.5-0.7-1.5-1.5S25.3,2,26.1,2z"/>
</g>
</svg>
