<?xml version="1.0" encoding="utf-8"?>
<!-- Generator: Adobe Illustrator 25.2.0, SVG Export Plug-In . SVG Version: 6.00 Build 0)  -->
<svg version="1.1" id="Layer_1" xmlns="http://www.w3.org/2000/svg" xmlns:xlink="http://www.w3.org/1999/xlink" x="0px" y="0px"
	 viewBox="0 0 64 64" style="enable-background:new 0 0 64 64;" xml:space="preserve">
<style type="text/css">
	.st0{fill:none;stroke:#5BBA47;stroke-miterlimit:10;}
	.st1{fill:none;stroke:#FFFFFF;stroke-width:4;stroke-miterlimit:10;}
	.st2{fill:none;stroke:#FFFFFF;stroke-width:4;stroke-linecap:round;stroke-miterlimit:10;}
	.st3{fill:none;stroke:#FFFFFF;stroke-width:4;stroke-linejoin:round;stroke-miterlimit:10;}
</style>
<g>
	<path class="st1" d="M8.5,36.6c-1.4-3.2-2.1-6.7-1.9-10.4C7.1,13.1,18.1,2.9,31.2,3.4S54.5,15,54,28.1c-0.1,2.6-0.6,5.1-1.5,7.4"/>
	<path class="st1" d="M30.9,50.9c-0.5,0-1,0-1.5,0c-3.1-0.1-6-0.8-8.6-2"/>
	<circle class="st1" cx="44.4" cy="46.6" r="14"/>
	<line class="st1" x1="30.9" y1="3.7" x2="30.9" y2="27.4"/>
	<line class="st1" x1="30.9" y1="27.4" x2="20.2" y2="38"/>
	<line class="st1" x1="30.9" y1="27.2" x2="54.1" y2="27.2"/>
	<g>
		<path class="st2" d="M48.3,42.7c0,0-0.2-4.4-4.1-4.1c-2.3,0.2-3.9,2.4-3.5,4.7c0.2,1.1,0.8,2.1,1.8,2.6c1.1,0.6,2.5,0.4,3.7,1
			c1.2,0.6,1.9,2,2,3.3c0.2,2.5-2.2,3.9-4.4,3.7c-2-0.2-2.9-1.8-3.4-3.5"/>
		<line class="st2" x1="44.3" y1="37.2" x2="44.3" y2="55.9"/>
	</g>
	<g>
		<ellipse class="st1" cx="13.7" cy="38.4" rx="8" ry="2.3"/>
		<path class="st3" d="M5.8,38.2v17.3c0,0,7.9,4.8,15.9,0V38.2"/>
		<path class="st3" d="M5.6,44.2c0,0,8.1,5,16.1,0"/>
		<path class="st3" d="M5.6,50.1c0,0,8.1,5,16.1,0"/>
	</g>
</g>
</svg>
