<?xml version="1.0" encoding="utf-8"?>
<!-- Generator: Adobe Illustrator 25.2.0, SVG Export Plug-In . SVG Version: 6.00 Build 0)  -->
<svg version="1.1" id="Layer_1" xmlns="http://www.w3.org/2000/svg" xmlns:xlink="http://www.w3.org/1999/xlink" x="0px" y="0px"
	 viewBox="0 0 587.5 594.9" style="enable-background:new 0 0 587.5 594.9;" xml:space="preserve">
<style type="text/css">
	.st0{fill:#FFFFFF;}
	.st1{fill:#070707;}
	.st2{fill:none;}
</style>
<path class="st2" d="M50.2,365c-3.3,1.2-5.7,2.1-8.1,3C24.3,374.5,21,379,21,397.6c0,42.7,0,85.5,0,128.2c0,13.7,3.6,19.8,16.4,24.3
	c33.1,11.8,66.6,11.9,99.8,0.7c14.6-4.9,17.9-10.7,17.9-26c0-15.3,0-30.6,0-47.2c4.3,2.2,6.8,3.4,9.3,4.7
	c36.7,18.7,75.9,27.2,116.9,26.5c8.3-0.1,12.8,2,17,8.8c18.6,30,44.9,50.3,78.5,61.3c56.8,18.6,123.5-1.7,158.4-48.6
	c45.8-61.5,40.9-138-12.9-193.3c-4.5-4.6-4.8-8.6-3.9-14.4c3.4-21.3,8.7-42.8,8.6-64.2c-0.5-68.3-24.7-128.1-73.5-176
	C390.8,20.7,314.5-1.8,228.3,14.1c-52.8,9.7-98.2,35.5-134.3,76c-62.1,69.6-80.7,149.7-56,239.6C41.2,341.4,45.9,352.7,50.2,365z"/>
<path class="st0" d="M50.2,365c-4.3-12.3-9.1-23.6-12.3-35.4c-24.7-89.9-6.1-170,56-239.6c36.1-40.5,81.5-66.3,134.3-76
	c86.2-15.9,162.6,6.7,225.3,68.4c48.7,47.9,72.9,107.8,73.5,176c0.2,21.4-5.2,42.8-8.6,64.2c-0.9,5.8-0.6,9.8,3.9,14.4
	c53.8,55.3,58.7,131.8,12.9,193.3c-34.9,46.8-101.6,67.2-158.4,48.6c-33.6-11-60-31.2-78.5-61.3c-4.2-6.8-8.8-9-17-8.8
	c-41,0.7-80.2-7.8-116.9-26.5c-2.5-1.3-5.1-2.6-9.3-4.7c0,16.6,0,31.9,0,47.2c0,15.3-3.3,21.1-17.9,26
	c-33.2,11.2-66.7,11.1-99.8-0.7C24.6,545.6,21,539.6,21,525.9c0-42.7,0-85.5,0-128.2c0-18.6,3.3-23.2,21.2-29.6
	C44.6,367.2,47,366.3,50.2,365z M272.3,18.8c-4.1,0-6.6-0.2-9.2,0c-62.9,4.7-118.1,28-160.3,74.9C35,169.1,18.3,255.4,54.9,351.2
	c4,10.6,8.8,11.8,19,11c27.5-2.2,54.9-1.2,78.8,15.6c1-0.7,1.8-1.2,2.5-1.9c37.7-38.2,75.6-76.4,113-114.9c2.7-2.8,4-8,4-12
	c0.2-72.8,0.2-145.7,0.2-218.5C272.3,27,272.3,23.5,272.3,18.8z M420.7,576.6c75.9-0.1,136.6-60.5,136.5-135.8
	c-0.1-75.3-61.1-136.3-136.3-136.4c-74.9,0-136,61.4-136,136.7C284.8,515.8,345.9,576.7,420.7,576.6z M282.1,19.2
	c0,78.6,0,156.4,0,234.3c78.9,0,157.1,0,235.3,0C515.8,123.4,406,19.3,282.1,19.2z M519.2,264.7c-2.9-0.7-3.9-1.1-4.8-1.1
	c-76.7,0-153.5-0.1-230.2,0.1c-3.3,0-7.3,2.3-9.7,4.8c-38.4,38.5-76.7,77.2-114.7,116c-2.6,2.6-4.4,7.2-4.5,10.9
	c-0.4,21.7-0.5,43.4,0,65.1c0.1,3.2,2.9,7.7,5.8,9.3c27.9,15.8,58.1,25.1,89.9,28.6c11.9,1.3,24,1.4,36.6,2.1
	c-22.6-63.8-14.5-120.4,34.3-165c57.5-52.6,121.6-52.7,188.5-11.1C513.4,303.9,516.2,284.6,519.2,264.7z M87.6,404.2
	c0.5,0,1,0,1.5,0c14.7,0.3,44-2.9,54.7-14.4c0.6-0.7,1.2-1.4,1.2-2.4c0-0.8-0.5-1.5-1-2.2c-11.6-15.2-44.1-15.8-61.1-15.2
	c-12.3,0.5-40.7,1.7-49.1,12.7C22.2,398.1,79.9,403.9,87.6,404.2z M31.1,489.5c-2.1,16.9-1.1,19.8,14.4,24.6
	c28.5,8.9,57.4,8.8,85.9-0.1c15.8-4.9,16.2-7,13.8-24.6C107.1,504.5,69,504.2,31.1,489.5z M30.8,518.6c-1.4,17.8-0.7,20.1,15.2,24.8
	c28.8,8.7,58.1,8.7,86.7-0.8c14.4-4.8,15.6-8.8,11.9-23.9C106.9,533.6,69.1,533.3,30.8,518.6z M145.1,460.2
	c-38.5,15.1-76.4,15-114.2,0c-1.6,18-0.8,20.2,15.6,25.2c27.8,8.4,56.1,8.3,83.9-0.1C146.8,480.2,147.5,477.9,145.1,460.2z
	 M31,431.2c-1.8,16.7-0.9,19.6,12.4,23.9c30,9.7,60.3,9.7,90.2-0.3c13.3-4.5,14.9-9.2,11-23.6C106.8,446.2,68.9,445.6,31,431.2z
	 M31,401.9c-1.7,17-1,19.6,11.8,23.8c30,10,60.3,10,90.3,0.2c14-4.6,15.5-9.1,11.5-23.8C106.9,416.8,69.3,416.7,31,401.9z"/>
<path class="st2" d="M272.3,18.8c0,4.7,0,8.2,0,11.7c0,72.8,0.1,145.7-0.2,218.5c0,4.1-1.3,9.3-4,12c-37.5,38.5-75.3,76.7-113,114.9
	c-0.7,0.7-1.5,1.2-2.5,1.9c-23.9-16.9-51.3-17.8-78.8-15.6c-10.1,0.8-14.9-0.4-19-11C18.3,255.4,35,169.1,102.8,93.8
	c42.2-46.9,97.4-70.2,160.3-74.9C265.7,18.7,268.2,18.8,272.3,18.8z"/>
<path class="st2" d="M420.7,576.6c-74.8,0.1-135.9-60.8-135.9-135.5c0-75.3,61.2-136.7,136-136.7c75.2,0,136.2,61.1,136.3,136.4
	C557.3,516,496.6,576.5,420.7,576.6z M425.1,340.7c0-3.4,0.5-5.8-0.1-7.8c-0.8-2.4-2.6-4.5-3.9-6.7c-1.4,2.1-3.3,4-4,6.3
	c-0.8,2.6-0.5,5.6-0.7,8.1c-32.3,9.8-45.4,23-46.3,49.8c-1.1,31.6,17.8,47.9,46.2,54.4c0,28.1,0,55.4,0,82.8
	c-19.4-0.2-33.7-14.7-37.6-36.6c-0.5-2.9-3.7-5.4-5.6-8.1c-1.1,3-3.2,6.1-3,9.1c1.2,20.5,17.2,39.5,38.3,44.6
	c6.5,1.6,9.5,3.5,8.8,10.6c-0.2,2.4,2.4,5.1,3.7,7.7c1.4-2.4,4.3-4.9,4.1-7.2c-0.6-7.3,2.2-9.7,9.2-11.3
	c20.7-4.8,35.9-23.2,37.7-43.9c2.1-23-7.7-45.2-28.1-51c-18.8-5.4-19.9-16-18.8-31.3c1-13.8,0.2-27.8,0.2-41.7c0-5.7,0-11.4,0-20.4
	c9.4,5,17.1,8,23.6,12.8c9.5,7,13.5,17.6,15,29.2c0.3,2.3,3.6,4.1,5.5,6.2c1-2.4,3-4.9,2.8-7.2c-0.6-5.4-1.8-10.8-3.7-15.8
	C460.9,353.8,445.4,344.6,425.1,340.7z"/>
<path class="st2" d="M282.1,19.2C406,19.3,515.8,123.4,517.4,253.5c-78.2,0-156.4,0-235.3,0C282.1,175.6,282.1,97.8,282.1,19.2z"/>
<path class="st2" d="M519.2,264.7c-2.9,19.9-5.8,39.2-8.9,59.7c-67-41.6-131.1-41.4-188.5,11.1c-48.7,44.6-56.9,101.2-34.3,165
	c-12.6-0.7-24.7-0.8-36.6-2.1c-31.8-3.5-62-12.8-89.9-28.6c-2.9-1.6-5.7-6.1-5.8-9.3c-0.5-21.7-0.5-43.4,0-65.1
	c0.1-3.7,1.9-8.2,4.5-10.9c38-38.9,76.3-77.5,114.7-116c2.5-2.5,6.5-4.8,9.7-4.8c76.7-0.3,153.5-0.2,230.2-0.1
	C515.3,263.6,516.2,264,519.2,264.7z"/>
<path class="st2" d="M31.1,489.5c38,14.7,76,14.9,114-0.1c2.4,17.6,2.1,19.7-13.8,24.6c-28.4,8.9-57.4,8.9-85.9,0.1
	C30,509.4,28.9,506.4,31.1,489.5z"/>
<path class="st2" d="M30.8,518.6c38.3,14.7,76,14.9,113.8,0.1c3.7,15.1,2.5,19.1-11.9,23.9c-28.7,9.6-57.9,9.5-86.7,0.8
	C30.1,538.7,29.4,536.4,30.8,518.6z"/>
<path class="st2" d="M145.1,460.2c2.4,17.7,1.6,20.1-14.7,25c-27.8,8.4-56,8.6-83.9,0.1c-16.5-5-17.2-7.2-15.6-25.2
	C68.8,475.2,106.6,475.3,145.1,460.2z"/>
<path class="st2" d="M31,431.2c37.9,14.4,75.8,15,113.7,0c3.9,14.4,2.3,19.1-11,23.6c-29.9,10.1-60.2,10-90.2,0.3
	C30,450.8,29.1,447.9,31,431.2z"/>
<path class="st2" d="M31,401.9c38.3,14.9,75.9,14.9,113.6,0.3c4,14.6,2.5,19.2-11.5,23.8c-30,9.8-60.3,9.8-90.3-0.2
	C29.9,421.4,29.2,418.9,31,401.9z"/>
<path class="st0" d="M425.1,340.7c20.3,3.8,35.8,13.1,43.2,32.5c1.9,5,3.1,10.5,3.7,15.8c0.3,2.3-1.8,4.8-2.8,7.2
	c-1.9-2-5.2-3.9-5.5-6.2c-1.5-11.7-5.5-22.2-15-29.2c-6.4-4.7-14.1-7.8-23.6-12.8c0,9,0,14.7,0,20.4c0,13.9,0.8,27.9-0.2,41.7
	c-1.1,15.3,0.1,25.9,18.8,31.3c20.4,5.8,30.2,28,28.1,51c-1.8,20.7-17,39-37.7,43.9c-7.1,1.7-9.9,4.1-9.2,11.3
	c0.2,2.3-2.6,4.8-4.1,7.2c-1.3-2.6-3.9-5.2-3.7-7.7c0.7-7.1-2.3-9-8.8-10.6c-21.1-5.2-37.1-24.1-38.3-44.6c-0.2-3,2-6.1,3-9.1
	c1.9,2.7,5.1,5.1,5.6,8.1c3.9,21.9,18.1,36.4,37.6,36.6c0-27.3,0-54.6,0-82.8c-28.4-6.6-47.2-22.9-46.2-54.4
	c0.9-26.8,14.1-40,46.3-49.8c0.2-2.5-0.1-5.5,0.7-8.1c0.7-2.3,2.6-4.2,4-6.3c1.3,2.2,3.1,4.3,3.9,6.7
	C425.6,334.9,425.1,337.4,425.1,340.7z M416.6,351.6c-21.4,0.8-39.3,21-38.2,42.3c1.2,21.8,19.1,40.5,38.2,39.5
	C416.6,406.4,416.6,379.3,416.6,351.6z M425.6,527.7c18.6,0.9,39.1-18.9,37.9-43.1c-1-21.2-21.9-41.6-37.9-38.5
	C425.6,473.2,425.6,500.3,425.6,527.7z"/>
<path class="st2" d="M416.6,351.6c0,27.7,0,54.8,0,81.9c-19.1,1-37-17.7-38.2-39.5C377.3,372.6,395.1,352.4,416.6,351.6z"/>
<path class="st2" d="M425.6,527.7c0-27.5,0-54.5,0-81.5c16-3.2,36.9,17.2,37.9,38.5C464.7,508.9,444.3,528.6,425.6,527.7z"/>
</svg>
