<svg id="Layer_1" data-name="Layer 1" xmlns="http://www.w3.org/2000/svg" viewBox="0 0 443.52 397.24"><defs><style>.cls-1{fill:#fff;}</style></defs><path class="cls-1" d="M230.89,288.7a13.77,13.77,0,1,1-13.77-13.77,13.76,13.76,0,0,1,13.77,13.77Zm0,0"/><path class="cls-1" d="M217.12,371.32C126,371.32,51.88,297.2,51.88,206.08S126,40.84,217.12,40.84,382.36,115,382.36,206.08,308.24,371.32,217.12,371.32Zm0-309.82c-79.72,0-144.58,64.86-144.58,144.58S137.4,350.67,217.12,350.67s144.59-64.86,144.59-144.59S296.85,61.5,217.12,61.5Zm0,0"/><path class="cls-1" d="M217.12,244a10.33,10.33,0,0,1-10.32-10.33v-13.9a31,31,0,0,1,20.68-29.22c16.45-5.8,27.51-23.33,27.51-36.05a37.87,37.87,0,0,0-75.74,0,10.33,10.33,0,0,1-20.65,0,58.52,58.52,0,1,1,117,0c0,23-18.13,47.35-41.29,55.53a10.33,10.33,0,0,0-6.9,9.75v13.89A10.34,10.34,0,0,1,217.12,244Zm0,0"/></svg>