<?xml version="1.0" encoding="utf-8"?>
<!-- Generator: Adobe Illustrator 21.0.0, SVG Export Plug-In . SVG Version: 6.00 Build 0)  -->
<svg version="1.1" id="Layer_1" xmlns="http://www.w3.org/2000/svg" xmlns:xlink="http://www.w3.org/1999/xlink" x="0px" y="0px"
	 viewBox="0 0 30 30" style="enable-background:new 0 0 30 30;" xml:space="preserve">
<style type="text/css">
	.st0{fill:#FFFFFF;}
</style>
<g>
	<path class="st0" d="M28.5,13.1C28.5,13.1,28.5,13.1,28.5,13.1L16.9,1.5C16.4,1,15.7,0.8,15,0.8c-0.7,0-1.4,0.3-1.9,0.8L1.5,13.1
		c0,0,0,0,0,0c-1,1-1,2.7,0,3.7c0.5,0.5,1.1,0.7,1.7,0.8c0,0,0.1,0,0.1,0h0.5v8.5c0,1.7,1.4,3.1,3.1,3.1h4.5c0.5,0,0.8-0.4,0.8-0.8
		v-6.7c0-0.8,0.6-1.4,1.4-1.4h2.7c0.8,0,1.4,0.6,1.4,1.4v6.7c0,0.5,0.4,0.8,0.8,0.8h4.5c1.7,0,3.1-1.4,3.1-3.1v-8.5h0.4
		c0.7,0,1.4-0.3,1.9-0.8C29.5,15.8,29.5,14.2,28.5,13.1z M27.3,15.7c-0.2,0.2-0.4,0.3-0.7,0.3h-1.3c-0.5,0-0.8,0.4-0.8,0.8v9.4
		c0,0.8-0.6,1.4-1.4,1.4h-3.7v-5.9c0-1.7-1.4-3.1-3.1-3.1h-2.7c-1.7,0-3.1,1.4-3.1,3.1v5.9H6.9c-0.8,0-1.4-0.6-1.4-1.4v-9.4
		c0-0.5-0.4-0.8-0.8-0.8H3.4c0,0,0,0,0,0c-0.2,0-0.5-0.1-0.7-0.3c-0.4-0.4-0.4-1,0-1.3c0,0,0,0,0,0l0,0L14.3,2.7
		c0.2-0.2,0.4-0.3,0.7-0.3c0.3,0,0.5,0.1,0.7,0.3l11.6,11.6c0,0,0,0,0,0C27.7,14.7,27.7,15.3,27.3,15.7z"/>
	<path class="st0" d="M23.1,29.7h-4.5c-0.7,0-1.3-0.6-1.3-1.3v-6.7c0-0.5-0.4-0.9-0.9-0.9h-2.7c-0.5,0-0.9,0.4-0.9,0.9v6.7
		c0,0.7-0.6,1.3-1.3,1.3H6.9c-2,0-3.6-1.6-3.6-3.6v-8l-0.1,0c-0.8,0-1.5-0.4-2.1-0.9C0,16,0,14,1.2,12.8L12.8,1.2
		C14,0,16,0,17.2,1.2l11.6,11.6c1.2,1.2,1.2,3.2,0,4.4c-0.6,0.6-1.3,0.9-2.1,0.9v8C26.7,28.1,25.1,29.7,23.1,29.7z M13.7,19.8h2.7
		c1,0,1.9,0.9,1.9,1.9v6.7c0,0.2,0.1,0.3,0.3,0.3h4.5c1.4,0,2.6-1.2,2.6-2.6v-9h0.9c0.6,0,1.1-0.2,1.5-0.6c0.8-0.8,0.8-2.2,0-3
		l0.4-0.4l-0.4,0.4L16.5,1.9c-0.8-0.8-2.2-0.8-3,0L1.9,13.5c-0.8,0.8-0.8,2.2,0,3c0.4,0.4,0.9,0.6,1.4,0.6l1,0v9
		c0,1.4,1.2,2.6,2.6,2.6h4.5c0.2,0,0.3-0.1,0.3-0.3v-6.7C11.8,20.7,12.6,19.8,13.7,19.8z M23.1,28.1h-4.2v-6.4
		c0-1.4-1.2-2.6-2.6-2.6h-2.7c-1.4,0-2.6,1.2-2.6,2.6v6.4H6.9c-1,0-1.9-0.9-1.9-1.9v-9.4c0-0.2-0.1-0.3-0.3-0.3H3.4
		c-0.4,0-0.8-0.2-1-0.4c-0.6-0.6-0.6-1.5,0-2.1L14,2.4c0.5-0.5,1.5-0.5,2.1,0L27.6,14c0.6,0.6,0.6,1.5,0,2.1v0
		c-0.3,0.3-0.6,0.4-1,0.4h-1.3c-0.2,0-0.3,0.1-0.3,0.3v9.4C25,27.2,24.2,28.1,23.1,28.1z M19.9,27.1h3.2c0.5,0,0.9-0.4,0.9-0.9v-9.4
		c0-0.7,0.6-1.3,1.3-1.3h1.3c0.1,0,0.2,0,0.3-0.1c0.2-0.2,0.2-0.5,0-0.6L15.3,3.1c-0.2-0.2-0.5-0.2-0.6,0L3.1,14.7
		c-0.2,0.2-0.2,0.5,0,0.6c0.1,0.1,0.2,0.1,0.3,0.1l1.3,0c0.7,0,1.3,0.6,1.3,1.3v9.4c0,0.5,0.4,0.9,0.9,0.9h3.2v-5.4
		c0-2,1.6-3.6,3.6-3.6h2.7c2,0,3.6,1.6,3.6,3.6V27.1z"/>
</g>
</svg>
