<svg xmlns="http://www.w3.org/2000/svg" width="30.001" height="30.001" viewBox="0 0 21 21">
  <defs>
    <style>
      .cls-1, .cls-2 {
        fill: none;
        stroke: #fff;
        stroke-linecap: round;
        stroke-width: 2px;
      }

      .cls-2 {
        fill-rule: evenodd;
      }
    </style>
  </defs>
  <circle id="Path_4" data-name="Path 4" class="cls-1" cx="10.5" cy="10.5" r="2.5"/>
  <path id="Path_5" data-name="Path 5" class="cls-2" d="M16.667,13a1.375,1.375,0,0,0,.275,1.517l0.05,0.05a1.668,1.668,0,1,1-2.358,2.358l-0.05-.05a1.384,1.384,0,0,0-2.35.983V18A1.667,1.667,0,0,1,8.9,18V17.925A1.375,1.375,0,0,0,8,16.667a1.376,1.376,0,0,0-1.517.275l-0.05.05a1.668,1.668,0,1,1-2.358-2.358l0.05-.05a1.384,1.384,0,0,0-.983-2.35H3A1.667,1.667,0,0,1,3,8.9H3.075A1.375,1.375,0,0,0,4.333,8a1.375,1.375,0,0,0-.275-1.517l-0.05-.05A1.668,1.668,0,1,1,6.367,4.075l0.05,0.05A1.375,1.375,0,0,0,7.933,4.4H8a1.375,1.375,0,0,0,.833-1.258V3a1.667,1.667,0,1,1,3.333,0V3.075a1.384,1.384,0,0,0,2.35.983l0.05-.05a1.668,1.668,0,1,1,2.358,2.358l-0.05.05A1.375,1.375,0,0,0,16.6,7.933V8a1.375,1.375,0,0,0,1.258.833H18a1.667,1.667,0,1,1,0,3.333H17.925A1.375,1.375,0,0,0,16.667,13h0Z"/>
</svg>
