<?xml version="1.0" encoding="utf-8"?>
<!-- Generator: Adobe Illustrator 24.3.0, SVG Export Plug-In . SVG Version: 6.00 Build 0)  -->
<svg version="1.1" id="Layer_1" xmlns="http://www.w3.org/2000/svg" xmlns:xlink="http://www.w3.org/1999/xlink" x="0px" y="0px"
	 viewBox="0 0 290.88 316.8" style="enable-background:new 0 0 290.88 316.8;" xml:space="preserve">
<style type="text/css">
	.st0{fill:#71C163;}
	.st1{fill:#FFFFFF;}
	.st2{fill:#71C164;}
	.st3{opacity:0.22;fill:#71C164;}
</style>
<g>
	<g>
		<ellipse class="st0" cx="147.62" cy="120.21" rx="31.92" ry="30.81"/>
		<ellipse class="st0" cx="204.3" cy="203.16" rx="27.68" ry="28.8"/>
		<path class="st1" d="M197.06,201.36l4.68,9c0,0,14.94-25.92,21.06-25.38l1.08,13.86c0,0-10.44,5.22-20.7,22.68
			c0,0-11.88-12.06-16.56-13.14L197.06,201.36z"/>
		<path class="st2" d="M132.29,157.58c1.67,1.54,3.37,3.07,5.36,4.18c9.04,5.04,18.97,2.3,26.58-4.09c0.02-0.02,0.04-0.03,0.06-0.05
			c3.56-3.01,6.6-5.93,11.49-6.67c5.77-0.88,10.78,2.05,14.72,6c3.6,3.62,6.27,8.23,9.76,12.01c-9.29,3.72-20.68,8.63-24.81,18.53
			c0,0-7.74,12.96-0.54,30.06c0,0-68.55-1-68.76-1c-2.45,0-5.06-1.86-7-3.34c-6.07-4.63-2.99-12.5-3.03-19.12
			c-0.03-5.68,0.94-11.36,0.91-17.04c-0.04-6.77,2.26-13.86,7.13-18.3c4.02-3.66,9.09-6.14,14.44-7.11
			C124.32,150.62,128.29,153.88,132.29,157.58z"/>
	</g>
	<circle class="st3" cx="149.68" cy="160.68" r="125"/>
</g>
</svg>
