<svg xmlns="http://www.w3.org/2000/svg" width="30" height="33.529" viewBox="0 0 17 19">
  <defs>
    <style>
      .cls-1 {
        fill: none;
        stroke: #fff;
        stroke-linecap: round;
        stroke-width: 2px;
        fill-rule: evenodd;
      }
    </style>
  </defs>
  <path id="Path_12" data-name="Path 12" class="cls-1" d="M11.833,2.833H13.5A1.667,1.667,0,0,1,15.167,4.5V16.167A1.667,1.667,0,0,1,13.5,17.833H3.5a1.667,1.667,0,0,1-1.667-1.667V4.5A1.667,1.667,0,0,1,3.5,2.833H5.167"/>
  <path id="Path_13" data-name="Path 13" class="cls-1" d="M11,1.167H6A0.833,0.833,0,0,0,5.167,2V3.667A0.833,0.833,0,0,0,6,4.5h5a0.833,0.833,0,0,0,.833-0.833V2A0.833,0.833,0,0,0,11,1.167Z"/>
</svg>
