<?xml version="1.0" encoding="utf-8"?>
<!-- Generator: Adobe Illustrator 19.0.0, SVG Export Plug-In . SVG Version: 6.00 Build 0)  -->
<svg version="1.1" id="Layer_1" xmlns="http://www.w3.org/2000/svg" xmlns:xlink="http://www.w3.org/1999/xlink" x="0px" y="0px"
	 viewBox="0 0 414.2 444.6" style="enable-background:new 0 0 414.2 444.6;" xml:space="preserve">
<style type="text/css">
	.st0{fill:none;stroke:#FFFFFF;stroke-width:37;stroke-miterlimit:10;}
	.st1{fill:#FFFFFF;}
	.st2{fill:none;}
</style>
<g>
	<path class="st0" d="M18.5,227.7v-5.9c1.3-4.4,3.9-8,6.8-11.4c2.3-2,3.8-4.7,5.9-6.9c21.2-25,45-47.1,72.1-65.7
		c26.5-17.7,54.9-30.6,86.8-34.7c4.7-0.2,9.3-1.3,14-1c15.4-0.3,30.4,1.8,45.2,6.1c3.8,1.4,7.8,2.2,11.6,3.7
		c12,4.6,23.5,10,34.6,16.4c3.4,1.9,6.5,4.1,9.9,6c10.2,6.6,20,13.7,29.4,21.4c2.9,2.3,5.5,4.9,8.4,7.3c9.3,7.9,17.8,16.6,26.4,25.2
		c2.2,3,4.8,5.7,7.5,8.3c4.5,5.6,9.2,10.9,13.7,16.6c2.1,2.7,4.1,5.4,4.9,8.8v5.9c-0.9,4.6-4.3,7.6-6.9,11.2c-2.1,2.2-3.8,4.8-5.9,7
		c-10.4,12.4-21.6,24-33.5,35c-10.6,9.7-21.8,18.6-33.3,27.2c-17.4,12.2-35.8,22.4-55.8,29.6c-10.8,3.9-21.8,6.7-33.2,8.2
		c-5.2,0.7-10.4,1.5-15.7,1.5c-15.6,0.4-30.9-1.7-45.9-5.9c-3.8-1.4-7.8-2.3-11.6-3.8c-12.4-4.2-23.9-10.2-35.4-16.3
		c-2.6-1.9-5.5-3.5-8.3-5.1c-0.6-0.3-1.2-0.7-1.7-1.1c-9.8-6.3-19.3-13.2-28.3-20.6c-2.7-2.6-5.8-4.7-8.4-7.3
		c-9.4-7.8-17.8-16.5-26.5-25.1c-2.5-2.8-4.7-5.8-7.5-8.3c-4.8-5.8-9.7-11.5-14.4-17.4C21.3,233.8,19.3,231.1,18.5,227.7z"/>
	<path class="st1" d="M206.4,0.1c0.8-0.1,1.7-0.1,2.5,0.1c7.8,2.2,10.4,5.4,10.5,13.3c0.1,6.5,0,13,0,19.5c0,1.9-0.1,3.7-0.9,5.5
		c-1.4,2.6-2.9,5.2-5.8,6.6c-8.8,4.1-17.6-1.2-17.9-10.9c-0.3-7.8-0.2-15.6,0-23.4c0-0.3,0-0.6,0.1-0.8C195.9,4,200.2,1.1,206.4,0.1
		"/>
	<path class="st1" d="M210.1,444.6h-6c-6.9-2.2-9.3-5.5-9.3-12.9c0-7.7-0.4-15.5,0.3-23.2c1.5-5,4.8-8.2,9.7-9.7
		c8.6-0.8,14.6,4.2,14.6,12.8c0.1,7.9,0.4,15.9-0.2,23.8C217.8,440.1,215.3,443.7,210.1,444.6"/>
	<path class="st1" d="M107.8,38.2c1.6-4.2,4.5-7,8.9-8.3c5.7-0.4,9.8,2,12.5,7.1c3.5,6.5,7.3,12.9,11,19.3
		c2.1,10.3-4.6,16.6-14.9,14.1c-2.8-1.5-4.7-3.8-6.2-6.5c-2.9-5.2-5.9-10.4-9-15.5C108.2,45.1,107.3,41.8,107.8,38.2"/>
	<path class="st1" d="M306.8,415.2c-1.3,1.3-2.5,2.5-3.8,3.8c-8.1,2.9-12.4,1.3-16.8-6.2c-3.3-5.7-6.7-11.3-10.1-17
		c-1.8-4-2.3-8,0.2-12c3-4.8,7.8-6.2,14.7-4.2c2.5,1.7,4.3,3.9,5.8,6.6c2.9,5.2,5.8,10.4,8.9,15.4
		C308.5,406,309.2,410.4,306.8,415.2"/>
	<path class="st1" d="M277.8,63.5c-3.2-3.8-3.8-8-2.5-12.7c4-6.8,8-13.6,12.1-20.4c2.7-4.4,6.8-6,11.8-5.7c4.9,0.2,8.7,3.6,9.2,9
		c0.3,3.6-0.7,6.8-2.6,9.9c-3.2,5.2-6.1,10.6-9.2,15.8C291.8,67.4,285.4,68.8,277.8,63.5"/>
	<path class="st1" d="M137.6,383.1c3.1,4.8,2.2,9.5-0.3,14.2c-3.1,5.2-6.4,10.3-9.3,15.7c-2.8,5.3-6.9,7.9-13,7.5
		c-4.3-0.3-7.1-2.5-8.4-6.7c-1.5-4.5-0.5-8.4,1.9-12.4c3.2-5.1,6.1-10.5,9.2-15.7C122.8,377,130.4,376,137.6,383.1"/>
	<path class="st1" d="M256.5,169.5c3.8-0.3,7.1,0.8,10.1,3c2.5,3.1,3.3,6.6,3.2,10.6c-0.1,12.9,0,25.8,0.1,38.7l0,14
		c0,10.4-0.2,20.8-0.1,31.2c0,5-1.3,9.2-6,11.7c-4.9,2.6-9.1,1.1-13.3-1.9c-4.1-3-8.3-5.9-13.2-7.8c-3.2-2-6.7-3.6-10.3-4.5
		c-10-4.3-20.6-5.9-31.4-6.5c-3.8-0.2-7.6,0.1-11.4-0.1c-2.6-0.2-2.9,0.9-2.9,3.1c0.1,7,0.1,14,0,21c0,7.8-4.4,12.8-11.1,12.8
		c-6.6,0-10.9-4.9-11-12.5c0-0.5-0.1-1-0.1-1.5c0-4.7,0-9.3,0-14c0-0.2,0.1-0.5,0.1-0.7c0-2.6,0.7-5.5-0.3-7.6
		c-1-2.1-4.3-1.5-6.6-2.2c-8.4-2.9-14.4-8.5-18.9-15.9c-1.5-3.6-2.7-7.4-3.6-11.2c-0.8-12.7,3.2-23.3,13.6-31
		c5.5-4.1,11.9-6.1,18.7-6.4c2-0.1,3.9-0.1,5.9-0.1c4.7,0,9.3,0,14,0c25.4,1.5,48.8-4.2,69.6-19.4
		C253.1,171,254.8,170.4,256.5,169.5"/>
	<rect class="st2" width="414.2" height="444.6"/>
</g>
</svg>
