<svg id="Layer_1" data-name="Layer 1" xmlns="http://www.w3.org/2000/svg" viewBox="0 0 3661.92 3474.72"><defs><style>.cls-1{fill:none;stroke:#fff;stroke-miterlimit:10;stroke-width:40px;}.cls-2{fill:#fff;}</style></defs><path class="cls-1" d="M2334.05,51.26h900c203.18,0,367.9,185.34,367.9,388.53"/><path class="cls-1" d="M1300.45,3416H406.26c-203.18,20.63-367.9-144.09-367.9-347.28v-69.32"/><path class="cls-1" d="M38.36,823.67V274.29s14.85-230.15,297-222.73L2056,51.39h83.36s37.12-7.25-52,89.26S706.53,1514.11,706.53,1514.11s-66.82,118.78-185.6,0L90.33,1068.66s-52-22.27-52,59.4V2746.51H1693.93s89.09-7.43-14.85-96.52l-445.44-423.17s-44.55-52,37.12-111.36L2056,1321.08s87.39-81.66,0-133.63l-363.74-358"/><path class="cls-1" d="M3601.3,2603l-8.05,590.48s11.05,230.43-271.16,229.46l-1720.24-1.69-83.34,1.91s-37,8.1,49.91-90.43S2917.51,1928,2917.51,1928s64.08-120.28,185.55-4.24l440.68,435.47s52.46,21.08,50.6-60.57l4.2-1618L1902.16,718.52s-88.89,9.47,17,96.15l455,412.87s45.72,50.94-34.57,112.18l-766.87,812.14s-85.5,83.64,3.06,133.6l392.92,369.73"/><rect class="cls-2" x="1531.33" y="1210.55" width="118.79" height="118.79"/><rect class="cls-2" x="1261.68" y="1440.13" width="118.79" height="118.79"/><rect class="cls-2" x="992.04" y="1669.71" width="118.79" height="118.79"/><rect class="cls-2" x="722.4" y="1899.3" width="118.79" height="118.79"/><rect class="cls-2" x="2599.87" y="1474.57" width="118.79" height="118.79" transform="translate(-209.45 440.71) rotate(-9.12)"/><rect class="cls-2" x="2370.01" y="1743.97" width="118.79" height="118.79" transform="matrix(0.99, -0.16, 0.16, 0.99, -255.04, 407.69)"/><rect class="cls-2" x="2140.15" y="2013.38" width="118.79" height="118.79" transform="matrix(0.99, -0.16, 0.16, 0.99, -300.62, 374.67)"/><rect class="cls-2" x="1910.29" y="2282.79" width="118.79" height="118.79" transform="translate(-346.21 341.66) rotate(-9.12)"/></svg>