<?xml version="1.0" encoding="utf-8"?>
<!-- Generator: Adobe Illustrator 25.2.0, SVG Export Plug-In . SVG Version: 6.00 Build 0)  -->
<svg version="1.1" id="Layer_2_1_" xmlns="http://www.w3.org/2000/svg" xmlns:xlink="http://www.w3.org/1999/xlink" x="0px" y="0px"
	 viewBox="0 0 334.7 246.3" style="enable-background:new 0 0 334.7 246.3;" xml:space="preserve">
<style type="text/css">
	.st0{fill:#FFFFFF;stroke:#FFFFFF;stroke-width:14;stroke-miterlimit:10;}
	.st1{fill:#231F20;}
	.st2{fill:none;stroke:#231F20;stroke-width:5;stroke-miterlimit:10;}
	.st3{fill:none;stroke:#FFFFFF;stroke-width:80;stroke-miterlimit:10;}
	.st4{fill:#FFFFFF;}
</style>
<path class="st4" d="M192.2,183c-1.8-5.3-5.4-10.1-8.2-14.9c-4.2-7.2-8.5-14.5-12.7-21.7c-10.3-17.6-20.6-35.2-30.9-52.8
	c-8.4-14.3-14.9-32.9-27.2-44.4c-11-10.3-27.4-4.6-34.3,7.5C64.9,81.3,50.4,105.6,36.2,130c-8,13.7-16,27.4-23.9,41.2
	c-6.1,10.5-10.3,22.3-1.9,33.2c5.6,7.2,14.3,5.4,22.3,5.4c19.9,0,39.7,0,59.6,0c8.8,0,22.2,3,29.3-3.1c14.6-12.5,7.7-38.1-12.2-38.5
	c-15.4-0.3-30.9,0-46.3,0C74.2,149.1,84,128,97,110.1c0.3-0.4,0.6-0.7,1-0.9c1-0.5,2.1,0.4,2.7,1.3c16,28.9,33.5,57,50,85.7
	c4.5,7.9,12.5,14.6,22,14.3c9.8-0.4,18.9-8.4,20.5-18C193.7,189.1,193.2,186,192.2,183z"/>
<path class="st4" d="M145.2,71.4c1.8,5.3,5.4,10.1,8.2,14.9c4.2,7.2,8.5,14.5,12.7,21.7c10.3,17.6,20.6,35.2,30.9,52.8
	c8.4,14.3,14.9,32.9,27.2,44.4c11,10.3,27.4,4.6,34.3-7.5c13.9-24.6,28.4-48.9,42.7-73.3c8-13.7,16-27.4,23.9-41.2
	c6.1-10.5,10.3-22.3,1.9-33.2c-5.6-7.2-14.3-5.4-22.3-5.4c-19.9,0-39.7,0-59.6,0c-8.8,0-22.2-3-29.3,3.1
	C201.2,60.2,208,85.8,228,86.2c15.4,0.3,30.9,0,46.3,0c-11.1,19.1-20.9,40.3-33.9,58.1c-0.3,0.4-0.6,0.7-1,0.9
	c-1,0.5-2.1-0.4-2.7-1.3c-16-28.9-33.5-57-50-85.7c-4.5-7.9-12.5-14.6-22-14.3c-9.8,0.4-18.9,8.4-20.5,18
	C143.7,65.3,144.2,68.4,145.2,71.4z"/>
</svg>
