<svg xmlns="http://www.w3.org/2000/svg" width="30" height="30" viewBox="0 0 30 30">
  <defs>
    <style>
      .cls-1 {
        fill: none;
        stroke: #fff;
        stroke-width: 2.813px;
        fill-rule: evenodd;
      }
    </style>
  </defs>
  <path id="bx_bxs-dashboard" class="cls-1" d="M12.344,15.625H2.969a0.156,0.156,0,0,1-.156-0.156V2.969a0.156,0.156,0,0,1,.156-0.156h9.375a0.156,0.156,0,0,1,.156.156v12.5A0.156,0.156,0,0,1,12.344,15.625ZM2.858,28.079a0.156,0.156,0,0,1-.046-0.111v-6.25a0.156,0.156,0,0,1,.156-0.156h9.375a0.156,0.156,0,0,1,.156.156v6.25a0.156,0.156,0,0,1-.156.156H2.969A0.155,0.155,0,0,1,2.858,28.079Zm15.625,0a0.156,0.156,0,0,1-.046-0.111V17.031a0.156,0.156,0,0,1,.156-0.156h9.375a0.156,0.156,0,0,1,.156.156V27.969a0.157,0.157,0,0,1-.156.156H18.594A0.155,0.155,0,0,1,18.483,28.079Zm9.485-17.142H18.594a0.157,0.157,0,0,1-.156-0.156V2.969a0.156,0.156,0,0,1,.156-0.156h9.375a0.156,0.156,0,0,1,.156.156v7.813A0.157,0.157,0,0,1,27.969,10.938Z"/>
</svg>
