<?xml version="1.0" encoding="utf-8"?>
<!-- Generator: Adobe Illustrator 19.0.0, SVG Export Plug-In . SVG Version: 6.00 Build 0)  -->
<svg version="1.1" id="Layer_1" xmlns="http://www.w3.org/2000/svg" xmlns:xlink="http://www.w3.org/1999/xlink" x="0px" y="0px"
	 viewBox="0 0 64 64" style="enable-background:new 0 0 64 64;" xml:space="preserve">
<style type="text/css">
	.st0{fill:#FFFFFF;}
</style>
<g>
	<path class="st0" d="M8,10V2c0-1.1,0.9-2,2-2c1.1,0,2,0.9,2,2v8c0,1.1-0.9,2-2,2C8.9,12,8,11.1,8,10L8,10z M42,12c1.1,0,2-0.9,2-2
		V2c0-1.1-0.9-2-2-2c-1.1,0-2,0.9-2,2v8C40,11.1,40.9,12,42,12L42,12z M64,48c0,8.8-7.2,16-16,16c-8.8,0-16-7.2-16-16
		c0-8.8,7.2-16,16-16C56.8,32,64,39.2,64,48L64,48z M60,48c0-6.6-5.4-12-12-12c-6.6,0-12,5.4-12,12c0,6.6,5.4,12,12,12
		C54.6,60,60,54.6,60,48L60,48z M16,24H8v8h8V24z M8,44h8v-8H8V44z M20,32h8v-8h-8V32z M20,44h8v-8h-8V44z M4,47.6V20h44v8h4V12.4
		C52,10,50.1,8,47.7,8H46v2c0,2.2-1.8,4-4,4s-4-1.8-4-4V8H14v2c0,2.2-1.8,4-4,4c-2.2,0-4-1.8-4-4V8H4.3C1.9,8,0,10,0,12.4v35.2
		C0,50,1.9,52,4.3,52H28v-4H4.3C4.2,48,4,47.8,4,47.6L4,47.6z M40,32v-8h-8v8H40z M54,48h-6v-6c0-1.1-0.9-2-2-2c-1.1,0-2,0.9-2,2v8
		c0,1.1,0.9,2,2,2h8c1.1,0,2-0.9,2-2C56,48.9,55.1,48,54,48L54,48z M54,48"/>
</g>
</svg>
