<svg id="Layer_1" data-name="Layer 1" xmlns="http://www.w3.org/2000/svg" viewBox="0 0 906.56 811.96"><defs><style>.cls-1{fill:#fff;}</style></defs><path class="cls-1" d="M500.57,602.18a32.13,32.13,0,1,1-32.13-32.13,32.13,32.13,0,0,1,32.13,32.13Zm0,0"/><path class="cls-1" d="M468.44,795C255.84,795,82.88,622,82.88,409.4s173-385.56,385.56-385.56S854,196.8,854,409.4,681.05,795,468.44,795Zm0-722.92c-186,0-337.36,151.33-337.36,337.36S282.41,746.77,468.44,746.77,805.81,595.43,805.81,409.4,654.47,72,468.44,72Zm0,0"/><path class="cls-1" d="M468.44,497.76a24.1,24.1,0,0,1-24.09-24.1V441.21A72.45,72.45,0,0,1,492.6,373c38.4-13.52,64.2-54.43,64.2-84.11a88.36,88.36,0,1,0-176.72,0,24.1,24.1,0,0,1-48.19,0c0-75.28,61.24-136.56,136.55-136.56S605,213.64,605,288.92c0,53.59-42.32,110.49-96.36,129.58a24.1,24.1,0,0,0-16.1,22.74v32.42a24.11,24.11,0,0,1-24.1,24.1Zm0,0"/></svg>