<?xml version="1.0" encoding="utf-8"?>
<!-- Generator: Adobe Illustrator 19.0.0, SVG Export Plug-In . SVG Version: 6.00 Build 0)  -->
<svg version="1.1" id="Layer_1" xmlns="http://www.w3.org/2000/svg" xmlns:xlink="http://www.w3.org/1999/xlink" x="0px" y="0px"
	 viewBox="0 0 150 150" style="enable-background:new 0 0 150 150;" xml:space="preserve">
<style type="text/css">
	.st0{fill:#FFFFFF;}
</style>
<g>
	<path class="st0" d="M100,50.3c-0.2,1.2-0.4,2.4-0.7,3.6c-1.2,4.6-3.6,8.5-6.9,11.8c-2.7,2.7-5.7,4.8-9.1,6.5
		c-5.5,2.8-11,5.6-16.5,8.4c-0.2,0.1-0.4,0.2-0.6,0.3c-0.6-1.2-1.2-2.4-1.8-3.7c0.2-0.1,0.4-0.3,0.7-0.4c5.4-2.7,10.8-5.5,16.2-8.2
		c3.4-1.7,6.2-4,8.8-6.7c4.2-4.4,5.9-9.7,5.4-15.7c-0.7-7.9-4.8-13.6-11.9-16.9c-4.7-2.2-9.6-2.7-14.5-1.1
		c-7.7,2.5-13.6,9.1-14.6,17.7c-0.8,7.1,1.7,12.8,6.9,17.6c2.2,2,4.7,3.7,7.4,5c0.4,0.2,0.8,0.4,1.4,0.7c-0.7,0.4-1.2,0.7-1.8,1
		c-0.8,0.4-1.5,0.9-2.3,1.3c-0.2,0.1-0.5,0.1-0.6,0c-5.8-3.2-10.6-7.3-13.3-13.5c-1.1-2.6-1.7-5.2-2-8c0-0.2-0.1-0.3-0.1-0.5
		c0-1.4,0-2.7,0-4.1c0-0.2,0.1-0.3,0.1-0.5c0.2-2.5,0.8-4.8,1.8-7.1c3.3-7.3,9-11.8,16.5-14c1.5-0.4,3-0.6,4.5-0.9c1,0,1.9,0,2.9,0
		c0.2,0,0.3,0.1,0.5,0.1c3.6,0.4,7,1.4,10.3,3c8,4,12.2,10.5,13.2,19.3c0.1,0.9,0.2,1.8,0.2,2.7C100,48.8,100,49.6,100,50.3z"/>
	<path class="st0" d="M66.3,90.2c-0.6-1.3-1.3-2.5-2-3.8c6.3-3.1,12.5-6.3,18.8-9.4c0.7,1.2,1.3,2.4,2,3.7c-0.2,0.1-0.5,0.3-0.7,0.4
		c-5.8,2.9-11.6,5.9-17.4,8.8c-0.2,0.1-0.4,0.3-0.6,0.4C66.3,90.2,66.3,90.2,66.3,90.2z"/>
	<path class="st0" d="M79.1,38.5c0,1.4,0,2.7,0,4.1c-0.6,0-1.2,0-1.8,0c0,4.4,0,8.8,0,13.2c0.6,0,1.2,0,1.8,0c0,1.4,0,2.8,0,4.2
		c-2.7,0-5.4,0-8.1,0c0-1.4,0-2.7,0-4.1c0.5,0,1.1,0,1.6,0c0-4.4,0-8.7,0-13.2c-0.5,0-1.1,0-1.7,0c0-1.4,0-2.8,0-4.2
		C73.7,38.5,76.4,38.5,79.1,38.5z"/>
</g>
<g>
	<path class="st0" d="M33.7,110.2c0-3.1,0-6.2,0-9.2c0.9,0,1.7,0,2.6,0c0,7.5,0,15.1,0,22.6c-0.8,0-1.6,0-2.5,0c0-0.8,0-1.5,0-2.3
		c-0.4,0.4-0.9,0.8-1.3,1.2c-2.8,2.3-6.9,1.8-9.4-0.5c-2.1-2-2.9-4.5-2.5-7.4c0.4-3.2,2.6-5.9,5.7-6.8c2.8-0.7,5.2-0.1,7.1,2.1
		C33.5,110,33.6,110.1,33.7,110.2z M23.1,115.8c0.1,0.7,0.2,1.4,0.4,2.1c0.7,2,2.1,3.3,4.2,3.7c1.9,0.3,3.4-0.4,4.7-1.9
		c2-2.4,1.8-6.3-0.5-8.4c-2.2-2-5.2-1.8-7.1,0.3C23.6,112.8,23.2,114.2,23.1,115.8z"/>
	<path class="st0" d="M54.7,116.5c-4.4,0-8.7,0-13.2,0c0.1,0.4,0.1,0.9,0.3,1.2c1.1,3.6,5.4,5.2,8.3,2.9c0.5-0.4,0.9-1,1.3-1.5
		c0.2-0.2,0.3-0.3,0.6-0.3c0.8,0,1.5,0,2.3,0c-0.6,1.8-1.6,3.3-3.3,4.2c-4.5,2.5-10.8,0.5-12-5.5c-0.9-4.7,2-8.8,6.1-9.8
		c3.5-0.8,7.3,1.2,8.8,4.7C54.4,113.7,54.7,115.2,54.7,116.5z M41.7,114.1c3.4,0,6.7,0,10.1,0c-0.1-2-2.5-4.1-4.6-4.2
		C44.6,109.8,42.1,111.7,41.7,114.1z"/>
	<path class="st0" d="M134.3,123.6c-1.2,0-2.1,0-3.1,0c-0.2,0-0.4-0.2-0.5-0.3c-2.6-2.4-5.2-4.9-7.9-7.3c-0.1-0.1-0.1-0.1-0.3-0.3
		c0,2.7,0,5.2,0,7.8c-0.9,0-1.7,0-2.6,0c0-7.5,0-15,0-22.6c0.8,0,1.7,0,2.6,0c0,4.8,0,9.7,0,14.7c0.8-0.7,1.5-1.4,2.1-2
		c2-1.9,4-3.8,6-5.6c0.2-0.2,0.4-0.3,0.7-0.3c1,0,2,0,3.1,0c-2.9,2.7-5.7,5.3-8.5,7.9C128.6,118.3,131.4,120.9,134.3,123.6z"/>
	<path class="st0" d="M56,115.8c0.1-3.7,2.3-6.9,5.7-7.9c4.3-1.3,8.8,1.3,9.9,5.8c0.9,3.8-0.6,7.5-3.8,9.3c-4.6,2.6-10.4,0-11.5-5.2
		C56.2,117.1,56.1,116.4,56,115.8z M58.7,116.1c0,0.8,0.3,1.8,0.8,2.8c1.8,3.1,5.6,3.6,8.1,1c2.3-2.3,2.2-6.4-0.2-8.7
		c-2-1.9-4.9-1.9-6.9,0C59.3,112.6,58.7,114.1,58.7,116.1z"/>
	<path class="st0" d="M88.6,112.8c-0.9,0-1.7,0-2.5,0c-0.2,0-0.4-0.2-0.5-0.4c-1.1-1.7-2.7-2.7-4.7-2.5c-2.2,0.2-3.7,1.6-4.5,3.6
		c-1,2.5-0.2,5.4,1.8,7c2.4,1.9,5.8,1.3,7.4-1.3c0.2-0.3,0.4-0.5,0.8-0.4c0.7,0,1.4,0,2.2,0c0,0.1,0,0.2,0,0.3
		c-0.9,2.8-3.8,4.8-6.7,4.9c-4.6,0.2-7.9-3.4-8.3-7.1c-0.5-4.3,2.1-8.3,6.2-9.2c3.6-0.8,7.3,0.9,8.7,4.6
		C88.5,112.4,88.5,112.6,88.6,112.8z"/>
	<path class="st0" d="M117.5,112.8c-0.9,0-1.7,0-2.5,0c-0.1,0-0.3-0.2-0.4-0.4c-1.2-2-3.1-2.7-4.8-2.5c-2.4,0.3-3.8,1.8-4.6,4
		c-0.8,2.4,0,5.1,1.9,6.6c2.4,1.9,5.7,1.3,7.3-1.3c0.2-0.4,0.4-0.5,0.8-0.5c0.7,0,1.4,0,2.2,0c-0.1,0.2-0.1,0.4-0.2,0.6
		c-1.3,2.9-3.6,4.5-6.8,4.6c-4.2,0.2-7.5-3.2-8-7.1c-0.5-4.1,2-8.1,5.8-9.1c3.6-1,7.7,0.6,9.2,4.6
		C117.4,112.5,117.4,112.6,117.5,112.8z"/>
	<path class="st0" d="M93.7,123.6c-0.9,0-1.7,0-2.6,0c0-7.5,0-15.1,0-22.6c0.8,0,1.7,0,2.6,0C93.7,108.5,93.7,116,93.7,123.6z"/>
	<path class="st0" d="M15.7,102.5c0.8,0,1.6,0,2.5,0c0,7,0,14.1,0,21.1c-0.8,0-1.6,0-2.5,0C15.7,116.6,15.7,109.6,15.7,102.5z"/>
	<path class="st0" d="M97.3,108c0.8,0,1.6,0,2.5,0c0,5.2,0,10.4,0,15.7c-0.4,0-0.8,0-1.3,0c-0.4,0-0.8,0-1.2,0
		C97.3,118.4,97.3,113.2,97.3,108z"/>
	<path class="st0" d="M99.8,101c0,1,0,2,0,3c-0.8,0-1.6,0-2.5,0c0-1,0-1.9,0-3C98.1,101,98.9,101,99.8,101z"/>
</g>
</svg>
