<?xml version="1.0" encoding="utf-8"?>
<!-- Generator: Adobe Illustrator 24.3.0, SVG Export Plug-In . SVG Version: 6.00 Build 0)  -->
<svg version="1.1" id="Layer_1" xmlns="http://www.w3.org/2000/svg" xmlns:xlink="http://www.w3.org/1999/xlink" x="0px" y="0px"
	 viewBox="0 0 280.8 293.76" style="enable-background:new 0 0 280.8 293.76;" xml:space="preserve">
<style type="text/css">
	.st0{fill:#F9DDDC;}
	.st1{fill:#E05455;}
	.st2{fill:#FFFFFF;}
</style>
<g>
	<circle class="st0" cx="140.3" cy="146.62" r="125"/>
	<g>
		<ellipse class="st1" cx="138.05" cy="109.81" rx="29.03" ry="28.02"/>
		<ellipse class="st1" cx="189.6" cy="185.26" rx="25.18" ry="26.19"/>
		<path class="st1" d="M124.12,143.8c1.52,1.4,3.07,2.79,4.88,3.8c8.22,4.58,17.25,2.1,24.17-3.72c0.02-0.01,0.04-0.03,0.05-0.04
			c3.24-2.73,6-5.39,10.45-6.06c5.25-0.8,9.8,1.87,13.39,5.46c3.28,3.3,5.71,7.49,8.88,10.92c-8.45,3.38-18.81,7.85-22.57,16.86
			c0,0-7.04,11.79-0.49,27.34c0,0-62.35-0.91-62.54-0.91c-2.23,0-4.6-1.69-6.37-3.04c-5.52-4.21-2.72-11.37-2.75-17.39
			c-0.03-5.16,0.85-10.33,0.82-15.49c-0.03-6.15,2.06-12.61,6.48-16.64c3.65-3.33,8.27-5.59,13.13-6.47
			C116.87,137.47,120.48,140.43,124.12,143.8z"/>
		<g>
			<path class="st2" d="M175.96,179.76c-0.3-0.02,2.92-7.07,3.22-7.51c3.38-4.88,8.96-6.89,14.77-5.52
				c4.79,1.13,8.26,5.42,9.08,10.18c0.98,5.73-2.21,10.39-6.77,13.55l-0.22,3.93h-9.39l0.47-5.89c0,0,3.8-4.47,3.89-4.58
				c1.36-1.6,2.87-4.11,0.88-5.91c-1.1-0.99-3.11-1.31-4.48-0.69c-0.48,0.22-2.68,3-2.08,3.04
				C185.35,180.35,175.98,179.76,175.96,179.76z"/>
			<rect x="186.44" y="197.44" class="st2" width="9.17" height="6.77"/>
		</g>
	</g>
</g>
</svg>
