<?xml version="1.0" encoding="utf-8"?>
<!-- Generator: Adobe Illustrator 21.0.0, SVG Export Plug-In . SVG Version: 6.00 Build 0)  -->
<svg version="1.1" id="Layer_1" xmlns="http://www.w3.org/2000/svg" xmlns:xlink="http://www.w3.org/1999/xlink" x="0px" y="0px"
	 viewBox="0 0 64 64" style="enable-background:new 0 0 64 64;" xml:space="preserve">
<style type="text/css">
	.st0{fill:#FFFFFF;}
</style>
<g>
	<path class="st0" d="M48,3.3H7v48.9h41V3.3z M45.5,49.7H9.4v-44h36.1V49.7z"/>
	<path class="st0" d="M49.3,53.5H5.7V2h43.6V53.5z M10.7,48.5h33.5V7H10.7V48.5z"/>
</g>
<g>
	<rect x="21.2" y="11.3" class="st0" width="20.6" height="3.7"/>
</g>
<g>
	<rect x="13.8" y="26.8" class="st0" width="28" height="3.7"/>
</g>
<g>
	<rect x="21.2" y="19" class="st0" width="20.6" height="3.7"/>
</g>
<g>
	<rect x="13.8" y="34.4" class="st0" width="28" height="3.7"/>
</g>
<g>
	<path class="st0" d="M53.1,12.3v2.5h2.3v44H19.3v-1.7h-2.5v4.2h41V12.3L53.1,12.3L53.1,12.3z"/>
	<polygon class="st0" points="59.1,62.5 15.6,62.5 15.6,55.8 20.6,55.8 20.6,57.5 54.1,57.5 54.1,16.1 51.8,16.1 51.8,11 59.1,11 	
		"/>
</g>
</svg>
