<?xml version="1.0" encoding="utf-8"?>
<!-- Generator: Adobe Illustrator 19.0.0, SVG Export Plug-In . SVG Version: 6.00 Build 0)  -->
<svg version="1.1" id="Layer_1" xmlns="http://www.w3.org/2000/svg" xmlns:xlink="http://www.w3.org/1999/xlink" x="0px" y="0px"
	 viewBox="0 0 38.1 47" style="enable-background:new 0 0 38.1 47;" xml:space="preserve">
<style type="text/css">
	.st0{fill:#7A7C8B;}
	.st1{fill:none;}
</style>
<path class="st0" d="M38,22.6c0-1.7-0.9-3-2.7-3.8c-0.6-0.2-1.3-0.3-2-0.5c0-0.2,0-0.4,0-0.6c-0.1-2.4,0.1-4.8-0.2-7.2
	c-0.6-4.7-5-8.9-10.3-10C21.9,0.3,21,0.1,20.1,0H18c-0.1,0-0.2,0.1-0.3,0.1c-3.3,0.3-6.1,1.4-8.5,3.4c-2.6,2.2-4.1,4.9-4.3,8
	c-0.1,2.1-0.1,4.2-0.1,6.3c0,0.2,0,0.4,0,0.6c-0.4,0.1-0.8,0.1-1.1,0.2c-2.3,0.5-3.6,2-3.6,4.1c0,6.7,0,13.4,0,20.2
	c0,2.5,2,4.2,4.9,4.2c9.4,0,18.8,0,28.2,0c0.7,0,1.5-0.1,2.2-0.4c1.9-0.8,2.7-2.1,2.7-3.9c0-5.5,0-11,0-16.4
	C38,25,38.1,23.8,38,22.6 M9.5,13.7c0-0.8,0-1.5,0.1-2.3c0-0.2,0-0.3,0.1-0.5c0-0.3,0.1-0.5,0.1-0.7C9.9,10,9.9,9.8,10,9.6
	c0.1-0.2,0.1-0.3,0.2-0.5c0.2-0.3,0.3-0.7,0.5-1C10.9,8,11,7.8,11.2,7.6c0.1-0.1,0.2-0.2,0.3-0.3c0.8-0.9,1.8-1.6,2.9-2.1
	c0.2-0.1,0.5-0.2,0.8-0.3c0.3-0.1,0.5-0.2,0.8-0.3c0.3-0.1,0.5-0.2,0.8-0.2c0.3-0.1,0.6-0.1,0.8-0.1c0.1,0,0.3,0,0.4,0
	c0.1,0,0.3,0,0.4,0c0.3,0,0.6,0,0.9,0C21.8,4.2,24,5,25.6,6.3c0.5,0.4,1,0.9,1.4,1.5c0.2,0.2,0.3,0.4,0.4,0.7
	c0.1,0.2,0.3,0.5,0.4,0.7c0.1,0.2,0.2,0.5,0.3,0.7c0.1,0.2,0.1,0.3,0.1,0.5c0.1,0.2,0.1,0.4,0.1,0.7c0,0,0,0.1,0,0.1
	c0.1,0.4,0.1,0.8,0.1,1.2c0,0.9,0,1.9,0,2.8c0,0.9,0,1.9,0,2.8v0.4H9.6c0,0,0,0,0-0.1c0-0.3,0-0.6,0-0.9v0c0-1.1,0-2.1,0-3.2
	C9.5,14,9.5,13.9,9.5,13.7 M33.3,42.9h-0.6c-9.1,0-18.2,0-27.2,0c-0.5,0-0.7-0.1-0.7-0.6c0-6.4,0-12.9,0-19.3v-0.5h28.5V42.9z"/>
<path class="st0" d="M16.7,35.7c0,0,0-0.1,0-0.1c0.1-0.8-0.1-1.4-0.9-2c-1.5-1.1-1.9-3-1-4.5c0.9-1.6,2.7-2.5,4.7-2.4
	c2.1,0.2,3.6,1.3,4.2,3.1c0.5,1.6-0.3,3.3-1.9,4.3c-0.3,0.2-0.4,0.3-0.4,0.6c0,0.7,0,1.4,0,2.2c0,1.2-1,2.1-2.4,2.1
	c-1.3,0-2.3-0.9-2.4-2.1C16.7,36.4,16.7,36,16.7,35.7"/>
<rect y="0" class="st1" width="38.1" height="47"/>
</svg>
