<?xml version="1.0" encoding="utf-8"?>
<!-- Generator: Adobe Illustrator 21.0.0, SVG Export Plug-In . SVG Version: 6.00 Build 0)  -->
<svg version="1.1" id="Layer_1" xmlns="http://www.w3.org/2000/svg" xmlns:xlink="http://www.w3.org/1999/xlink" x="0px" y="0px"
	 viewBox="0 0 30 30" style="enable-background:new 0 0 30 30;" xml:space="preserve">
<style type="text/css">
	.st0{fill:#FFFFFF;}
</style>
<path class="st0" d="M5.3,29.4h19.1c0.9,0,1.6-0.7,1.6-1.6V8.6C26,7.7,25.3,7,24.4,7h-4.8V5.4c0-2.6-2.1-4.8-4.8-4.8
	s-4.8,2.1-4.8,4.8V7H5.3C4.4,7,3.7,7.7,3.7,8.6v19.2C3.7,28.7,4.4,29.4,5.3,29.4z M13.3,5.4c0-0.9,0.7-1.6,1.6-1.6
	c0.9,0,1.6,0.7,1.6,1.6V7h-3.2V5.4z M6.9,10.2h3.2v1.6c0,0.9,0.7,1.6,1.6,1.6c0.9,0,1.6-0.7,1.6-1.6v-1.6h3.2v1.6
	c0,0.9,0.7,1.6,1.6,1.6c0.9,0,1.6-0.7,1.6-1.6v-1.6h3.2v16H6.9V10.2z"/>
</svg>
