<?xml version="1.0" encoding="utf-8"?>
<!-- Generator: Adobe Illustrator 24.3.0, SVG Export Plug-In . SVG Version: 6.00 Build 0)  -->
<svg version="1.1" id="Layer_1" xmlns="http://www.w3.org/2000/svg" xmlns:xlink="http://www.w3.org/1999/xlink" x="0px" y="0px"
	 viewBox="0 0 213.12 205.92" style="enable-background:new 0 0 213.12 205.92;" xml:space="preserve">
<style type="text/css">
	.st0{fill:#5652A3;}
	.st1{fill:none;stroke:#5652A3;stroke-width:3;stroke-miterlimit:10;}
	.st2{fill:#5652A3;stroke:#FFFFFF;stroke-miterlimit:10;}
	.st3{opacity:0.22;fill:#5652A3;}
	.st4{fill:#5652A3;stroke:#FFFFFF;stroke-width:2;stroke-miterlimit:10;}
	.st5{fill:none;stroke:#FFFFFF;stroke-width:2;stroke-miterlimit:10;}
	.st6{fill:#DDD7EB;}
	.st7{fill:#5752A3;}
	.st8{opacity:0.61;fill:#5752A3;}
	.st9{fill:none;stroke:#5652A3;stroke-width:5;stroke-miterlimit:10;}
</style>
<g>
	<circle class="st3" cx="105.56" cy="108.35" r="80.58"/>
	<path class="st0" d="M89.34,121.39c0.03,0.85,0.02,1.76-0.03,2.75c-0.1,2.16,0.14,4.42,0.98,6.42c1.78,4.24,8.36,9.11,4.35,14.22
		h-2.1c0,0,0,8.54,0,8.54c10.9,0,21.81,0,32.71,0c2.9,0,3.95-0.33,3.54-3.64c-0.28-2.26-1.8-2.81-3.68-3.5
		c-2.1-0.78-2.71-2.28-2.67-4.58c0.03-1.64,0.85-3.13,2.12-4.14c1.11-0.88,3.69-1.23,4.14-2.73c0.06-0.19,0.07-0.38,0.08-0.58
		c0.15-3.21,0.04-6.44,0.04-9.66c0-2.77,0-5.55,0-8.32c0-2.48,1.11-7.62-1.01-9.38c-1.76-1.46-5.18-0.81-7.25-0.62
		c0.3-0.03-1.35-4.44-1.93-4.86c-1.51-1.1-3.01,0.39-3.76,1.68c-0.17,0.3-0.32,0.61-0.58,0.84c-0.43,0.37-5.23,0.08-5.23,0.17
		c0,0,0-17.39,0-17.39s-3.98-7.59-9.04,0l0.32,31.67c0,0,0.63,13.54-2.53,1.53c0,0-3.48-18.02-12.02-12.02
		c-1.8,1.27,0.52,4.85,1.27,6.1C88.64,116.57,89.23,118.72,89.34,121.39z"/>
	<g>
		<g>
			<circle class="st0" cx="104.12" cy="68.75" r="13.49"/>
			<circle class="st4" cx="104.12" cy="67.19" r="7.42"/>
			<path class="st5" d="M96.14,79.63c1.69-2.98,5.04-5.02,8.9-5.02c3.41,0,6.43,1.59,8.25,4.03"/>
		</g>
		<path class="st6" d="M100.22,82.59c0-2.12,2.07-3.83,4.62-3.83c2.55,0,4.62,1.72,4.62,3.83"/>
	</g>
	<g>
		<circle class="st0" cx="68.98" cy="97.02" r="11.33"/>
		<circle class="st4" cx="68.98" cy="95.71" r="6.23"/>
		<path class="st5" d="M62.28,106.16c1.42-2.51,4.23-4.21,7.47-4.21c2.87,0,5.4,1.34,6.93,3.38"/>
	</g>
	<g>
		<circle class="st0" cx="141.91" cy="96.05" r="12.17"/>
		<circle class="st4" cx="141.91" cy="94.64" r="6.7"/>
		<path class="st5" d="M134.71,105.87c1.53-2.69,4.55-4.53,8.03-4.53c3.08,0,5.8,1.44,7.45,3.64"/>
	</g>
	<g>
		<rect x="58.64" y="139.06" class="st7" width="7.23" height="1.75"/>
		<rect x="62.92" y="117.27" class="st8" width="3.94" height="27.15"/>
		<rect x="60.28" y="117.27" class="st7" width="3.94" height="27.15"/>
	</g>
	<g>
		<rect x="70.4" y="120.89" class="st7" width="7.23" height="1.75"/>
		<rect x="69.4" y="117.27" class="st8" width="3.94" height="27.15"/>
		<rect x="72.04" y="117.27" class="st7" width="3.94" height="27.15"/>
	</g>
	<g>
		<rect x="132.46" y="139.04" class="st7" width="7.23" height="1.75"/>
		<rect x="136.74" y="117.26" class="st8" width="3.94" height="27.15"/>
		<rect x="134.1" y="117.26" class="st7" width="3.94" height="27.15"/>
	</g>
	<g>
		<rect x="144.22" y="120.87" class="st7" width="7.23" height="1.75"/>
		<rect x="143.22" y="117.26" class="st8" width="3.94" height="27.15"/>
		<rect x="145.86" y="117.26" class="st7" width="3.94" height="27.15"/>
	</g>
	<path class="st9" d="M75.97,83.02c0.85-3.65,2.99-6.89,6.02-9.09c1.78-1.3,3.86-2.24,6.16-2.69"/>
	<path class="st9" d="M134.71,81.43c-1.31-3.51-3.86-6.44-7.14-8.24c-1.93-1.06-4.11-1.72-6.45-1.88"/>
</g>
</svg>
