<?xml version="1.0" encoding="utf-8"?>
<!-- Generator: Adobe Illustrator 19.0.0, SVG Export Plug-In . SVG Version: 6.00 Build 0)  -->
<svg version="1.1" id="Layer_1" xmlns="http://www.w3.org/2000/svg" xmlns:xlink="http://www.w3.org/1999/xlink" x="0px" y="0px"
	 viewBox="0 0 55.5 65.8" style="enable-background:new 0 0 55.5 65.8;" xml:space="preserve">
<style type="text/css">
	.st0{fill:#FFFFFF;stroke:#FFFFFF;stroke-width:3;stroke-miterlimit:10;}
	.st1{fill:#FFFFFF;}
	.st2{stroke:#FFFFFF;stroke-width:2;stroke-miterlimit:10;}
</style>
<path class="st0" d="M51.7,4.1H3.5v57.5h48.2V4.1z M48.8,58.7H6.4V7h42.4V58.7z M48.8,58.7"/>
<rect x="11.4" y="47.7" class="st1" width="32.9" height="4.4"/>
<rect x="11.4" y="39.8" class="st1" width="32.9" height="4.4"/>
<g>
	<g>
		<path class="st2" d="M27.5,30.4L22,15c-0.1-0.3-0.5-0.6-0.8-0.6c0,0,0,0,0,0c-0.4,0-0.7,0.2-0.8,0.6c0,0-1.4,3.8-2.7,7.6
			c-2.8,7.8-2.8,7.9-2.8,8.1c0,0.5,0.4,0.9,0.9,0.9c0,0,0,0,0,0c0.4,0,0.8-0.3,0.9-0.7c0.1-0.3,0.7-2.2,1.6-4.6h6l1.7,4.8
			c0.1,0.4,0.5,0.6,0.8,0.6c0.1,0,0.2,0,0.3-0.1C27.4,31.3,27.7,30.8,27.5,30.4z M18.8,24.5c0.8-2.1,1.6-4.4,2.4-6.6l2.4,6.6H18.8z"
			/>
	</g>
</g>
<g>
	<g>
		<path class="st2" d="M32.7,14.3h-0.3c-0.5,0-0.9,0.4-0.9,0.9v15.4c0,0.5,0.4,0.9,0.9,0.9h0.3c4.7,0,8.6-3.8,8.6-8.6
			S37.4,14.3,32.7,14.3z M33.2,29.7V16.1c3.5,0.3,6.2,3.2,6.2,6.8C39.5,26.4,36.7,29.4,33.2,29.7z"/>
	</g>
</g>
</svg>
