<?xml version="1.0" encoding="utf-8"?>
<!-- Generator: Adobe Illustrator 21.0.0, SVG Export Plug-In . SVG Version: 6.00 Build 0)  -->
<svg version="1.1" id="Layer_1" xmlns="http://www.w3.org/2000/svg" xmlns:xlink="http://www.w3.org/1999/xlink" x="0px" y="0px"
	 viewBox="0 0 90.2 90.2" style="enable-background:new 0 0 90.2 90.2;" xml:space="preserve">
<style type="text/css">
	.st0{fill:#DEE2DE;}
	.st1{fill:#75D675;}
	.st2{fill:#FF525B;}
</style>
<g>
	<path class="st0" d="M44.8,5.9c21.9,0,39.6,17.7,39.6,39.6S66.7,85.2,44.8,85.2S5.2,67.4,5.2,45.6S22.9,5.9,44.8,5.9 M44.8,0.9
		c-24.6,0-44.6,20-44.6,44.6s20,44.6,44.6,44.6s44.6-20,44.6-44.6S69.4,0.9,44.8,0.9L44.8,0.9z"/>
</g>
<g>
	<path class="st0" d="M208.7,3.9c21.9,0,39.6,17.7,39.6,39.6s-17.7,39.6-39.6,39.6S169,65.4,169,43.5S186.8,3.9,208.7,3.9
		 M208.7-1.1c-24.6,0-44.6,20-44.6,44.6s20,44.6,44.6,44.6s44.6-20,44.6-44.6S233.3-1.1,208.7-1.1L208.7-1.1z"/>
</g>
<polygon class="st1" points="24.8,48.6 28.5,45.2 36.9,54.1 61.6,29.6 64.9,33.4 36.9,61.6 "/>
<g>
	<polygon class="st2" points="193,55.6 221,28.2 224.3,31.9 196.2,58.8 	"/>
	<polygon class="st2" points="224.3,55.6 196.3,28.2 193,31.9 221.2,58.8 	"/>
</g>
</svg>
