<?xml version="1.0" encoding="utf-8"?>
<!-- Generator: Adobe Illustrator 24.3.0, SVG Export Plug-In . SVG Version: 6.00 Build 0)  -->
<svg version="1.1" id="Layer_1" xmlns="http://www.w3.org/2000/svg" xmlns:xlink="http://www.w3.org/1999/xlink" x="0px" y="0px"
	 viewBox="0 0 218.16 230.98" style="enable-background:new 0 0 218.16 230.98;" xml:space="preserve">
<style type="text/css">
	.st0{fill:#FEF1D8;}
	.st1{fill:#F9BB37;}
	.st2{fill:#FFFFFF;}
</style>
<circle class="st0" cx="109.24" cy="114.95" r="94.56"/>
<g>
	<polygon class="st1" points="118.15,79.58 81.16,79.58 81.16,150.32 137.32,150.32 137.32,97.94 119.23,98.21 	"/>
	<polygon class="st1" points="121.39,81.05 121.39,95.09 134.35,95.09 	"/>
	<rect x="88.76" y="95.09" class="st2" width="16.96" height="4.86"/>
	<rect x="88.76" y="104.27" class="st2" width="17.44" height="3.51"/>
	<path class="st2" d="M84.65,149.5l14.58-14.44l4.99,5.8l16.68-14.54l1.55,4.68l2.02-0.4l0.85-10.22l-12.19-0.04l-0.07,1.55
		l5.95,1.98l-14.01,12.66l-4.17-4.19c0,0-1.89-2.02-4.05,0.54l-15.53,15.52v1.9h2.97L84.65,149.5z"/>
</g>
</svg>
