<svg id="Icon" xmlns="http://www.w3.org/2000/svg" width="60" height="60" viewBox="0 0 60 60">
  <defs>
    <style>
      .cls-1 {
        fill: #882bb9;
        opacity: 0.2;
      }

      .cls-2 {
        fill: #571985;
        fill-rule: evenodd;
      }
    </style>
  </defs>
  <circle id="Circle_BG" data-name="Circle BG" class="cls-1" cx="30" cy="30" r="30"/>
  <path id="Icon-2" data-name="Icon" class="cls-2" d="M727.625,343.88l-2.053-2.036a3.134,3.134,0,0,1-4.432-4.433l-2.037-2.036a2.1,2.1,0,0,0-2.949,0l-14.779,14.762a2.106,2.106,0,0,0,0,2.95l2.036,2.053a3.134,3.134,0,0,1,4.433,4.432l2.053,2.053a2.1,2.1,0,0,0,2.949,0l14.779-14.8A2.106,2.106,0,0,0,727.625,343.88Zm-4.416,3.259-10.07,10.07a1.061,1.061,0,0,1-1.466,0l-5.9-5.9a1.025,1.025,0,0,1,0-1.467l10.07-10.07a1.065,1.065,0,0,1,1.467,0l5.9,5.9A1.022,1.022,0,0,1,723.209,347.139Zm-6.631-5.882,5.149,5.149-9.32,9.321-5.149-5.149Z" transform="translate(-684 -318)"/>
</svg>
