<?xml version="1.0" encoding="utf-8"?>
<!-- Generator: Adobe Illustrator 21.0.0, SVG Export Plug-In . SVG Version: 6.00 Build 0)  -->
<svg version="1.1" id="Layer_1" xmlns="http://www.w3.org/2000/svg" xmlns:xlink="http://www.w3.org/1999/xlink" x="0px" y="0px"
	 viewBox="0 0 30 33" style="enable-background:new 0 0 30 33;" xml:space="preserve">
<style type="text/css">
	.st0{fill:#FFFFFF;}
</style>
<path class="st0" d="M29.3,26.1V3.8H0.7v22.3h10.9v3.4H9.9v1.7h10.2v-1.7h-1.7v-3.4H29.3z M2.3,24.4v-2.3h16.9v-1.7H8.6l4.5-4.6
	l2.5,2.6l7-7.1v2.1h1.7V8.2h-5v1.7h2.3l-5.9,6l-2.5-2.6l-6.9,7H2.3V5.5h25.3v18.9C27,24.4,3,24.4,2.3,24.4z M16.7,29.5h-3.5v-3.4
	h3.5V29.5z"/>
<path class="st0" d="M20.9,20.4h1.7v1.7h-1.7V20.4z"/>
<path class="st0" d="M24.3,20.4H26v1.7h-1.7V20.4z"/>
</svg>
