<?xml version="1.0" encoding="utf-8"?>
<!-- Generator: Adobe Illustrator 21.0.0, SVG Export Plug-In . SVG Version: 6.00 Build 0)  -->
<svg version="1.1" id="Layer_1" xmlns="http://www.w3.org/2000/svg" xmlns:xlink="http://www.w3.org/1999/xlink" x="0px" y="0px"
	 viewBox="0 0 65 65" style="enable-background:new 0 0 65 65;" xml:space="preserve">
<style type="text/css">
	.st0{fill:#FFFFFF;}
</style>
<path d="M64,58.2H2c-0.6,0-1-0.5-1-1V7c0-0.6,0.4-1,1-1h62c0.5,0,1,0.4,1,1v50.1C65,57.7,64.5,58.2,64,58.2z"/>
<g>
	<path class="st0" d="M26.9,33.7h-6.2l-0.9,2.8h-6.1L20.5,18h6.7L34,36.5h-6.1L26.9,33.7z M23.8,24.2l-1.7,5.1h3.3L23.8,24.2z"/>
	<path class="st0" d="M45.1,21.6c3.4,0,6.1,2.8,6.1,7.6s-2.7,7.6-6.1,7.6c-2,0-3.3-0.9-4.1-2.2v9.1h-5.8V21.9H41v2
		C41.8,22.5,43.2,21.6,45.1,21.6z M43.2,26.7c-1.2,0-2.1,0.9-2.1,2.5s0.9,2.5,2.1,2.5c1.2,0,2.1-0.9,2.1-2.5
		C45.3,27.5,44.4,26.7,43.2,26.7z"/>
</g>
</svg>
