<?xml version="1.0" encoding="utf-8"?>
<!-- Generator: Adobe Illustrator 21.0.0, SVG Export Plug-In . SVG Version: 6.00 Build 0)  -->
<svg version="1.1" id="Layer_1" xmlns="http://www.w3.org/2000/svg" xmlns:xlink="http://www.w3.org/1999/xlink" x="0px" y="0px"
	 viewBox="0 0 65 65" style="enable-background:new 0 0 65 65;" xml:space="preserve">
<style type="text/css">
	.st0{fill:#2E60DB;}
	.st1{fill:#FFFFFF;}
</style>
<path class="st0" d="M64,58.1H2c-0.6,0-1-0.5-1-1V7c0-0.6,0.4-1,1-1h62c0.5,0,1,0.4,1,1v50.1C65,57.7,64.5,58.1,64,58.1z"/>
<g>
	<path class="st1" d="M26.4,36.1h-6.7l-1,3h-6.6L19.5,19h7.3L34,39.2h-6.7L26.4,36.1z M23,25.8l-1.8,5.6h3.6L23,25.8z"/>
	<path class="st1" d="M46.2,23c3.7,0,6.6,3,6.6,8.2s-2.9,8.2-6.6,8.2c-2.1,0-3.6-0.9-4.4-2.4v9.9h-6.3V23.2h6.3v2.2
		C42.5,23.9,44.1,23,46.2,23z M44.1,28.5c-1.3,0-2.3,0.9-2.3,2.7c0,1.8,1,2.7,2.3,2.7s2.3-0.9,2.3-2.7
		C46.4,29.4,45.4,28.5,44.1,28.5z"/>
</g>
</svg>
