<?xml version="1.0" encoding="utf-8"?>
<!-- Generator: Adobe Illustrator 21.0.0, SVG Export Plug-In . SVG Version: 6.00 Build 0)  -->
<svg version="1.1" id="Layer_1" xmlns="http://www.w3.org/2000/svg" xmlns:xlink="http://www.w3.org/1999/xlink" x="0px" y="0px"
	 viewBox="0 0 65 65" style="enable-background:new 0 0 65 65;" xml:space="preserve">
<style type="text/css">
	.st0{fill:#2E60DB;}
</style>
<g>
	<path class="st0" d="M60.3,36.4V3.5c0-1-0.8-1.8-1.8-1.8H7.3c-1,0-1.8,0.8-1.8,1.8v32.9c0,1,0.8,1.8,1.8,1.8h12.8V40
		c0,1,0.8,1.8,1.8,1.8h5.5v20.3c0,1,0.8,1.8,1.8,1.8h7.3c1,0,1.8-0.8,1.8-1.8V41.8h5.5c1,0,1.8-0.8,1.8-1.8v-1.8h12.8
		C59.5,38.2,60.3,37.4,60.3,36.4z M34.7,60.3H31V41.8h3.7V60.3z M42,38.2H23.8v-3.7H42V38.2z M56.6,34.5h-11v-1.8
		c0-1-0.8-1.8-1.8-1.8H21.9c-1,0-1.8,0.8-1.8,1.8v1.8h-11V5.3h47.5V34.5z"/>
	<path class="st0" d="M32.9,27.2c1,0,1.8-0.8,1.8-1.8V10.8c0-1-0.8-1.8-1.8-1.8s-1.8,0.8-1.8,1.8v14.6
		C31.1,26.4,31.9,27.2,32.9,27.2z"/>
	<path class="st0" d="M18.3,27.2H22c3,0,5.5-2.5,5.5-5.5c0-1.4-0.5-2.7-1.4-3.7c0.9-1,1.4-2.3,1.4-3.7c0-3-2.5-5.5-5.5-5.5h-3.7
		c-1,0-1.8,0.8-1.8,1.8v14.6C16.5,26.4,17.3,27.2,18.3,27.2z M21.9,23.6h-1.8v-3.7h1.8c1,0,1.8,0.8,1.8,1.8
		C23.8,22.8,22.9,23.6,21.9,23.6z M20.1,12.6h1.8c1,0,1.8,0.8,1.8,1.8s-0.8,1.8-1.8,1.8h-1.8V12.6z"/>
	<path class="st0" d="M40.2,27.2h3.7c3,0,5.5-2.5,5.5-5.5v-7.3c0-3-2.5-5.5-5.5-5.5h-3.7c-1,0-1.8,0.8-1.8,1.8v14.6
		C38.4,26.4,39.2,27.2,40.2,27.2z M42,12.6h1.8c1,0,1.8,0.8,1.8,1.8v7.3c0,1-0.8,1.8-1.8,1.8H42V12.6z"/>
</g>
</svg>
