<?xml version="1.0" encoding="utf-8"?>
<!-- Generator: Adobe Illustrator 21.0.0, SVG Export Plug-In . SVG Version: 6.00 Build 0)  -->
<svg version="1.1" id="Layer_1" xmlns="http://www.w3.org/2000/svg" xmlns:xlink="http://www.w3.org/1999/xlink" x="0px" y="0px"
	 viewBox="0 0 65 65" style="enable-background:new 0 0 65 65;" xml:space="preserve">
<path d="M64,8.7c0-3.1-2.5-5.6-5.6-5.6c-0.5,0-1,0.1-1.4,0.2l0,0l-33.4,9.4h-6.8c-3.2,0-5.9,2.3-6.3,5.4H5c-1.2,0-2.2,1-2.2,2.2l0,0
	v8.4c0,1.2,1,2.2,2.2,2.2l0,0h5.4V31c0,1.7,0.7,3.3,1.9,4.5c0.2,0.2,0.4,0.4,0.7,0.6l0.8,23.8c0,1,0.9,1.9,1.9,1.8l8.6-0.2
	c1.1,0,1.9-0.9,1.9-2l0,0l-0.6-21.4L57,47l0,0c3,0.8,6.1-1,6.8-4c0.1-0.5,0.2-0.9,0.2-1.4V8.7z M7.2,26.6v-4.1h2.7v4.1H7.2z
	 M16.7,33.6c-1.4-0.1-2.5-1.2-2.5-2.6v-1.2v-0.9c0,0,0,0,0-0.1v-8.4v-0.1v-1.1c0-1.4,1.2-2.6,2.6-2.6h5.3v17.1h-0.5h-4.8L16.7,33.6z
	 M22.3,57.8l-4.8,0.1l-0.2-5l4.8-0.3L22.3,57.8z M22,48.7L17.2,49l-0.4-11.7h4.9L22,48.7z M32.7,36.3l-6.8-1.9l0,0v-3.9V16.1
	l19.5-5.5V36v4L32.7,36.3z M59.5,43.1c-0.4,0.3-1,0.5-1.5,0.3l-8.8-2.5v-4V9.4L58,6.9c1-0.2,1.9,0.3,2.2,1.3c0,0.1,0.1,0.3,0.1,0.4
	V40v1.7C60.2,42.2,60,42.8,59.5,43.1L59.5,43.1z"/>
</svg>
