<?xml version="1.0" encoding="utf-8"?>
<!-- Generator: Adobe Illustrator 21.0.0, SVG Export Plug-In . SVG Version: 6.00 Build 0)  -->
<svg version="1.1" id="Layer_1" xmlns="http://www.w3.org/2000/svg" xmlns:xlink="http://www.w3.org/1999/xlink" x="0px" y="0px"
	 viewBox="0 0 65 65" style="enable-background:new 0 0 65 65;" xml:space="preserve">
<path d="M8.7,10.1v-8c0-1.1,0.9-2,2-2s2,0.9,2,2v8c0,1.1-0.9,2-2,2S8.7,11.2,8.7,10.1L8.7,10.1z"/>
<path d="M42.7,12.1c1.1,0,2-0.9,2-2v-8c0-1.1-0.9-2-2-2s-2,0.9-2,2v8C40.7,11.2,41.6,12.1,42.7,12.1L42.7,12.1z"/>
<rect x="8.7" y="24.1" width="8" height="8"/>
<rect x="8.7" y="36.1" width="8" height="8"/>
<rect x="20.7" y="24.1" width="8" height="8"/>
<rect x="20.7" y="36.1" width="8" height="8"/>
<path d="M4.7,47.7V20.1h44v8h4V12.5c0-2.4-1.9-4.4-4.3-4.4h-1.7v2c0,2.2-1.8,4-4,4s-4-1.8-4-4v-2h-24v2c0,2.2-1.8,4-4,4s-4-1.8-4-4
	v-2H5c-2.4,0-4.3,2-4.3,4.4v35.2c0,2.4,1.9,4.4,4.3,4.4h23.7v-4H5C4.9,48.1,4.7,47.9,4.7,47.7L4.7,47.7z"/>
<rect x="32.7" y="24.1" width="8" height="8"/>
<path d="M59.7,38c-6.2-5.4-15.6-4.7-20.9,1.4l-1,1.2l-3.5-3.1l0.6,9.4l9.3-0.6l-4-3.5l1-1.2c4.2-4.8,11.5-5.3,16.3-1
	c4.8,4.2,5.3,11.5,1,16.3c-4.2,4.8-11.5,5.3-16.3,1c-1.8-1.6-3.1-3.8-3.7-6.2l-3.3,0.2c1.4,7.4,8.1,12.6,15.6,12.1
	c8.2-0.6,14.3-7.7,13.8-15.8C64.4,44.2,62.6,40.6,59.7,38z"/>
</svg>
