<?xml version="1.0" encoding="utf-8"?>
<!-- Generator: Adobe Illustrator 21.0.0, SVG Export Plug-In . SVG Version: 6.00 Build 0)  -->
<svg version="1.1" id="Layer_1" xmlns="http://www.w3.org/2000/svg" xmlns:xlink="http://www.w3.org/1999/xlink" x="0px" y="0px"
	 viewBox="0 0 65 65" style="enable-background:new 0 0 65 65;" xml:space="preserve">
<style type="text/css">
	.st0{fill:#2E60DB;}
</style>
<g>
	<g>
		<g>
			<path class="st0" d="M64.2,23.4L55,16.9V7.4c-0.1-0.9-0.8-1.7-1.8-1.8H12.8c-0.9,0.1-1.7,0.9-1.8,1.8v9.4l-9.6,6.6
				c-0.4,0.3-0.6,0.7-0.7,1.2v34.8c0.1,1,0.9,1.7,1.8,1.8h60.7c0.8,0,1.1-1,1.1-1.8V24.6C64.5,24.1,64.6,23.7,64.2,23.4z M55,20.4
				l6.3,4.3L55,29.5V20.4z M14.1,8.5h38v23.3l-19,14.3l-19-14.3L14.1,8.5L14.1,8.5z M11.1,20.3v9.2l-6.3-4.8L11.1,20.3z M3.8,27.7
				l20.5,15.5L3.8,57V27.7z M7.3,58.2l19.5-13.1l5.2,4c0.3,0.2,0.7,0.4,1,0.4s0.4-0.1,0.7-0.4l5.4-4.2l19.7,13.3
				C58.8,58.2,7.3,58.2,7.3,58.2z M61.6,56.5L41.6,43l20-15.4V56.5z"/>
			<path class="st0" d="M21.4,18H28c0.8,0,1.5-0.7,1.5-1.5S28.8,15,28,15h-6.6c-0.8,0-1.5,0.7-1.5,1.5C19.9,17.3,20.6,18,21.4,18z"
				/>
			<path class="st0" d="M21.4,24.6h23.4c0.8,0,1.5-0.7,1.5-1.5s-0.7-1.5-1.5-1.5H21.4c-0.8,0-1.5,0.7-1.5,1.5S20.6,24.6,21.4,24.6z"
				/>
			<path class="st0" d="M46.2,29.7c0-0.8-0.7-1.5-1.5-1.5H21.3c-0.8,0-1.5,0.7-1.5,1.5s0.7,1.5,1.5,1.5h23.4
				C45.6,31.2,46.2,30.5,46.2,29.7z"/>
		</g>
	</g>
</g>
</svg>
