<?xml version="1.0" encoding="utf-8"?>
<!-- Generator: Adobe Illustrator 21.0.0, SVG Export Plug-In . SVG Version: 6.00 Build 0)  -->
<svg version="1.1" id="Layer_1" xmlns="http://www.w3.org/2000/svg" xmlns:xlink="http://www.w3.org/1999/xlink" x="0px" y="0px"
	 viewBox="0 0 55.5 65.8" style="enable-background:new 0 0 55.5 65.8;" xml:space="preserve">
<style type="text/css">
	.st0{fill:#EAAB42;}
</style>
<g>
	<path class="st0" d="M51.7,4.1H3.5v57.5h48.2V4.1z M48.8,58.7H6.4V7h42.4C48.8,7,48.8,58.7,48.8,58.7z"/>
	<path class="st0" d="M53.2,63.1H2V2.6h51.2V63.1z M7.9,57.2h39.4V8.5H7.9V57.2z"/>
</g>
<g>
	<rect x="11.4" y="47.7" class="st0" width="32.9" height="4.4"/>
</g>
<g>
	<rect x="11.4" y="39.8" class="st0" width="32.9" height="4.4"/>
</g>
<g>
	<g>
		<g>
			<path class="st0" d="M27.5,30.4L22,15c-0.1-0.3-0.5-0.6-0.8-0.6l0,0c-0.4,0-0.7,0.2-0.8,0.6c0,0-1.4,3.8-2.7,7.6
				c-2.8,7.8-2.8,7.9-2.8,8.1c0,0.5,0.4,0.9,0.9,0.9l0,0c0.4,0,0.8-0.3,0.9-0.7c0.1-0.3,0.7-2.2,1.6-4.6h6l1.7,4.8
				c0.1,0.4,0.5,0.6,0.8,0.6c0.1,0,0.2,0,0.3-0.1C27.4,31.3,27.7,30.8,27.5,30.4z M18.8,24.5c0.8-2.1,1.6-4.4,2.4-6.6l2.4,6.6H18.8z
				"/>
			<path class="st0" d="M26.8,32.7c-0.7,0-1.5-0.5-1.8-1.4l-1.4-4H19c-0.7,1.8-1.1,3.2-1.3,3.7l-0.1,0.2c-0.2,0.8-1,1.4-1.8,1.4
				c-1,0-1.9-0.9-1.9-1.9c0-0.4,0-0.5,2.9-8.4c1.2-3.5,2.5-7.1,2.7-7.6c0.2-0.8,0.9-1.3,1.8-1.3c0.7,0,1.5,0.6,1.7,1.3L28.4,30
				c0.3,0.7,0.1,1.6-0.6,2.3C27.4,32.7,27,32.7,26.8,32.7z M20.2,23.5h1.9l-1-2.7C20.9,21.7,20.6,22.6,20.2,23.5z M21.1,15.3
				C21.1,15.3,21.1,15.3,21.1,15.3L21.1,15.3z"/>
		</g>
	</g>
</g>
<g>
	<g>
		<g>
			<path class="st0" d="M32.7,14.3h-0.3c-0.5,0-0.9,0.4-0.9,0.9v15.4c0,0.5,0.4,0.9,0.9,0.9h0.3c4.7,0,8.6-3.8,8.6-8.6
				S37.4,14.3,32.7,14.3z M33.2,29.7V16.1c3.5,0.3,6.2,3.2,6.2,6.8C39.5,26.4,36.7,29.4,33.2,29.7z"/>
			<path class="st0" d="M32.7,32.5h-0.3c-1,0-1.9-0.9-1.9-1.9V15.2c0-1,0.9-1.9,1.9-1.9h0.3c5.3,0,9.6,4.3,9.6,9.6
				S38,32.5,32.7,32.5z M34.2,17.3v11.2c2.5-0.7,4.3-3,4.2-5.6C38.4,20.2,36.7,18,34.2,17.3z"/>
		</g>
	</g>
</g>
</svg>
