<?xml version="1.0" encoding="utf-8"?>
<!-- Generator: Adobe Illustrator 21.0.0, SVG Export Plug-In . SVG Version: 6.00 Build 0)  -->
<svg version="1.1" id="Layer_1" xmlns="http://www.w3.org/2000/svg" xmlns:xlink="http://www.w3.org/1999/xlink" x="0px" y="0px"
	 viewBox="0 0 30 30" style="enable-background:new 0 0 30 30;" xml:space="preserve">
<style type="text/css">
	.st0{fill:#EAAB42;}
</style>
<g>
	<g>
		<path class="st0" d="M19.6,8.7h-2.7c-0.5,0-0.8,0.4-0.8,0.8V15c0,0.5,0.4,0.8,0.8,0.8h2.7c2,0,3.6-1.6,3.6-3.6
			C23.1,10.3,21.5,8.7,19.6,8.7z M19.6,14.2h-1.9v-3.7h1.9c1,0,1.9,0.8,1.9,1.9S20.6,14.2,19.6,14.2z"/>
	</g>
</g>
<g>
	<g>
		<path class="st0" d="M14,14.6l-2.7-5.4c-0.1-0.3-0.4-0.5-0.8-0.5c-0.3,0-0.6,0.2-0.8,0.5l-2.7,5.4c-0.2,0.4,0,0.9,0.4,1.1
			c0.4,0.2,0.9,0,1.1-0.4l2-3.9l2,3.9c0.1,0.3,0.4,0.5,0.8,0.5c0.1,0,0.3,0,0.4-0.1C14,15.5,14.2,15,14,14.6z"/>
	</g>
</g>
<g>
	<g>
		<path class="st0" d="M25.9,0.6H4.2C3.8,0.6,3.4,1,3.4,1.5v21.7v5.4c0,0.5,0.4,0.8,0.8,0.8h21.7c0.5,0,0.8-0.4,0.8-0.8v-5.4V1.5
			C26.7,1,26.3,0.6,25.9,0.6z M25,22.3h-20v-20h20V22.3z"/>
	</g>
</g>
</svg>
