<?xml version="1.0" encoding="utf-8"?>
<!-- Generator: Adobe Illustrator 21.0.0, SVG Export Plug-In . SVG Version: 6.00 Build 0)  -->
<svg version="1.1" id="Layer_2" xmlns="http://www.w3.org/2000/svg" xmlns:xlink="http://www.w3.org/1999/xlink" x="0px" y="0px"
	 viewBox="0 0 305 379" style="enable-background:new 0 0 305 379;" xml:space="preserve">
<style type="text/css">
	.st0{fill:#EAAB42;stroke:#EAAB42;stroke-width:14;stroke-miterlimit:10;}
</style>
<g>
	<g>
		<path class="st0" d="M255.3,22.7v-0.2H56.2c-24.3,0-44,19.7-44,44v39.8c0,4.4,3.6,8,8,8h67.4v225.8c-0.2,7,2.1,13.8,6.3,19.4
			c6,7.7,16.5,10.5,25.6,6.8c8-3.5,14.6-9.5,18.8-17.1l49.1-78.3l49.2,78.4c4.2,7.6,10.9,13.6,18.8,17.1c9.1,3.7,19.5,0.9,25.6-6.8
			c4.3-5.5,6.5-12.4,6.3-19.4V54.7C287.3,37,273,22.7,255.3,22.7z M87.5,97.9H28.1V66.3C28.3,51,40.6,38.7,55.8,38.5h4v0.3
			C75.1,39,87.4,51.3,87.5,66.5V97.9z M268.1,349.5c-0.8,1-1.9,1.8-3.1,2.2c-1.3,0.3-2.7,0.2-4-0.4c-4.6-2.4-8.4-6.3-10.7-11l-56-89
			c-0.7-1.1-1.6-2.1-2.7-2.7c-3.8-2.3-8.7-1-11,2.7l-56.3,89c-2.4,4.6-6.2,8.3-10.9,10.6c-1.3,0.5-2.7,0.7-4,0.4
			c-1.2-0.4-2.3-1.2-3.1-2.2c-1.9-2.7-2.9-5.9-2.7-9.2V66.3c0-10.1-3.5-19.9-9.9-27.8h161.6l-0.2,0.3c8.6,0.1,15.6,7.1,15.8,15.8
			v285.6C271,343.6,270,346.8,268.1,349.5z"/>
	</g>
</g>
</svg>
