<?xml version="1.0" encoding="utf-8"?>
<!-- Generator: Adobe Illustrator 21.0.0, SVG Export Plug-In . SVG Version: 6.00 Build 0)  -->
<svg version="1.1" id="Layer_1" xmlns="http://www.w3.org/2000/svg" xmlns:xlink="http://www.w3.org/1999/xlink" x="0px" y="0px"
	 viewBox="0 0 30 30" style="enable-background:new 0 0 30 30;" xml:space="preserve">
<style type="text/css">
	.st0{fill:none;stroke:#EAAB42;stroke-width:2.813;}
</style>
<path id="bx_bxs-dashboard" class="st0" d="M12.3,15.6H3c-0.1,0-0.2-0.1-0.2-0.2l0,0V3c0-0.1,0.1-0.2,0.2-0.2h9.4
	c0.1,0,0.2,0.1,0.2,0.2l0,0v12.5C12.5,15.6,12.4,15.6,12.3,15.6L12.3,15.6z M2.9,28.1c0,0,0-0.1,0-0.1v-6.3c0-0.1,0.1-0.2,0.2-0.2
	l0,0h9.4c0.1,0,0.2,0.1,0.2,0.2l0,0V28c0,0.1-0.1,0.2-0.2,0.2l0,0H3C2.9,28.1,2.9,28.1,2.9,28.1z M18.5,28.1c0,0,0-0.1,0-0.1V17
	c0-0.1,0.1-0.2,0.2-0.2l0,0H28c0.1,0,0.2,0.1,0.2,0.2l0,0V28c0,0.1-0.1,0.2-0.2,0.2h-9.4C18.6,28.1,18.5,28.1,18.5,28.1z M28,10.9
	h-9.4c-0.1,0-0.2-0.1-0.2-0.2V3c0-0.1,0.1-0.2,0.2-0.2l0,0H28c0.1,0,0.2,0.1,0.2,0.2l0,0v7.8C28.1,10.9,28.1,10.9,28,10.9L28,10.9z"
	/>
</svg>
