<?xml version="1.0" encoding="utf-8"?>
<!-- Generator: Adobe Illustrator 21.0.0, SVG Export Plug-In . SVG Version: 6.00 Build 0)  -->
<svg version="1.1" id="Layer_1" xmlns="http://www.w3.org/2000/svg" xmlns:xlink="http://www.w3.org/1999/xlink" x="0px" y="0px"
	 viewBox="0 0 30 30" style="enable-background:new 0 0 30 30;" xml:space="preserve">
<style type="text/css">
	.st0{fill:none;stroke:#EAAB42;stroke-width:2;stroke-linecap:round;}
</style>
<circle id="Path_4" class="st0" cx="15" cy="15" r="3.6"/>
<path id="Path_5" class="st0" d="M23.8,18.6c-0.3,0.7-0.2,1.6,0.4,2.2l0.1,0.1c1,0.9,1,2.4,0.1,3.4c-0.9,1-2.4,1-3.4,0.1
	c0,0-0.1-0.1-0.1-0.1l-0.1-0.1c-0.8-0.8-2-0.7-2.8,0c-0.4,0.4-0.6,0.9-0.6,1.4v0.2c0,1.3-1.1,2.4-2.4,2.4c-1.3,0-2.4-1.1-2.4-2.4
	v-0.1c0-0.8-0.5-1.5-1.3-1.8c-0.7-0.3-1.6-0.2-2.2,0.4l-0.1,0.1c-0.9,1-2.4,1-3.4,0.1c-1-0.9-1-2.4-0.1-3.4c0,0,0.1-0.1,0.1-0.1
	l0.1-0.1c0.8-0.8,0.7-2,0-2.8c-0.4-0.4-0.9-0.6-1.4-0.6H4.3c-1.3,0-2.4-1.1-2.4-2.4c0-1.3,1.1-2.4,2.4-2.4h0.1
	c0.8,0,1.5-0.5,1.8-1.3c0.3-0.7,0.2-1.6-0.4-2.2L5.7,9.2c-0.9-0.9-1-2.4-0.1-3.4s2.4-1,3.4-0.1c0,0,0,0,0.1,0.1l0.1,0.1
	c0.6,0.6,1.4,0.7,2.2,0.4h0.1c0.7-0.3,1.2-1,1.2-1.8V4.3c0-1.3,1-2.4,2.3-2.4s2.4,1,2.4,2.3c0,0,0,0.1,0,0.1v0.1c0,1.1,0.9,2,2,2
	c0.5,0,1-0.2,1.4-0.6l0.1-0.1c0.9-1,2.4-1,3.4-0.1c1,0.9,1,2.4,0.1,3.4c0,0-0.1,0.1-0.1,0.1l-0.1,0.1c-0.6,0.6-0.7,1.4-0.4,2.2v0.1
	c0.3,0.7,1,1.2,1.8,1.2h0.2c1.3,0,2.4,1,2.4,2.3c0,1.3-1,2.4-2.3,2.4c0,0-0.1,0-0.1,0h-0.1C24.8,17.4,24.1,17.9,23.8,18.6L23.8,18.6
	z"/>
</svg>
