<?xml version="1.0" encoding="utf-8"?>
<!-- Generator: Adobe Illustrator 21.0.0, SVG Export Plug-In . SVG Version: 6.00 Build 0)  -->
<svg version="1.1" id="Layer_1" xmlns="http://www.w3.org/2000/svg" xmlns:xlink="http://www.w3.org/1999/xlink" x="0px" y="0px"
	 viewBox="0 0 90.2 90.2" style="enable-background:new 0 0 90.2 90.2;" xml:space="preserve">
<style type="text/css">
	.st0{fill:#DEE2DE;}
	.st1{fill:#75D675;}
	.st2{fill:#FF525B;}
</style>
<g>
	<path class="st0" d="M-93.7,5.9c21.9,0,39.6,17.7,39.6,39.6s-17.7,39.6-39.6,39.6s-39.6-17.7-39.6-39.6S-115.6,5.9-93.7,5.9
		 M-93.7,0.9c-24.6,0-44.6,20-44.6,44.6s20,44.6,44.6,44.6s44.6-20,44.6-44.6S-69.1,0.9-93.7,0.9L-93.7,0.9z"/>
</g>
<g>
	<path class="st0" d="M45.1,5.5c21.9,0,39.6,17.7,39.6,39.6S67,84.7,45.1,84.7S5.5,67,5.5,45.1S23.2,5.5,45.1,5.5 M45.1,0.5
		c-24.6,0-44.6,20-44.6,44.6s20,44.6,44.6,44.6s44.6-20,44.6-44.6S69.7,0.5,45.1,0.5L45.1,0.5z"/>
</g>
<polygon class="st1" points="-113.8,48.6 -110,45.2 -101.6,54.1 -76.9,29.6 -73.6,33.4 -101.6,61.6 "/>
<g>
	<polygon class="st2" points="29.4,57.1 57.4,29.8 60.8,33.5 32.6,60.4 	"/>
	<polygon class="st2" points="60.8,57.1 32.8,29.8 29.4,33.5 57.6,60.4 	"/>
</g>
</svg>
