<?xml version="1.0" encoding="utf-8"?>
<!-- Generator: Adobe Illustrator 21.0.0, SVG Export Plug-In . SVG Version: 6.00 Build 0)  -->
<svg version="1.1" id="Layer_1" xmlns="http://www.w3.org/2000/svg" xmlns:xlink="http://www.w3.org/1999/xlink" x="0px" y="0px"
	 viewBox="0 0 150 150" style="enable-background:new 0 0 150 150;" xml:space="preserve">
<g>
	<g id="XMLID_370_">
		<rect id="XMLID_374_" x="83.6" y="104.9" width="7.4" height="3.6"/>
		<g id="XMLID_334_">
			<path id="XMLID_2_" d="M34.5,106.7h4.7l7,19.7h-4.5l-1.3-4.1h-7.3l-1.3,4.1h-4.3L34.5,106.7z M34.3,118.9h5.1l-2.5-7.8
				L34.3,118.9z"/>
			<path id="XMLID_5_" d="M56.1,112.1c0.7,0.4,1.2,0.9,1.7,1.6v-7h3.9v19.7H58v-2c-0.5,0.9-1.2,1.5-1.9,1.9s-1.6,0.6-2.6,0.6
				c-1.7,0-3.1-0.7-4.3-2.1s-1.7-3.1-1.7-5.3c0-2.5,0.6-4.4,1.7-5.9c1.1-1.4,2.7-2.1,4.6-2.1C54.6,111.4,55.5,111.7,56.1,112.1z
				 M57,122.4c0.6-0.8,0.8-1.8,0.8-3.1c0-1.8-0.5-3.1-1.4-3.8c-0.6-0.5-1.2-0.7-1.9-0.7c-1.1,0-1.9,0.4-2.5,1.3
				c-0.5,0.8-0.8,1.9-0.8,3.1c0,1.3,0.3,2.4,0.8,3.2s1.3,1.2,2.4,1.2S56.5,123.3,57,122.4z"/>
			<path id="XMLID_8_" d="M64,116.9h7.5v3.6H64V116.9z"/>
			<path id="XMLID_10_" d="M74.8,108.1h2.4v4h2.3v2h-2.3v9.4c0,0.5,0.2,0.8,0.5,1c0.2,0.1,0.5,0.1,0.9,0.1c0.1,0,0.2,0,0.4,0
				c0.1,0,0.3,0,0.5,0v1.9c-0.3,0.1-0.6,0.1-0.9,0.2c-0.3,0-0.6,0.1-1,0.1c-1.1,0-1.9-0.3-2.3-0.9c-0.4-0.6-0.6-1.3-0.6-2.2v-9.5
				h-1.9v-2h1.9L74.8,108.1L74.8,108.1z"/>
			<path id="XMLID_12_" d="M90.8,112.4c1,0.5,1.7,1.1,2.2,1.9c0.5,0.7,0.8,1.6,1,2.5c0.1,0.7,0.2,1.7,0.2,3.2H83.6
				c0,1.5,0.4,2.6,1,3.5c0.6,0.9,1.6,1.3,3,1.3c1.3,0,2.3-0.4,3-1.2c0.4-0.5,0.7-1,0.9-1.7h2.4c-0.1,0.5-0.3,1.1-0.6,1.8
				c-0.4,0.6-0.7,1.2-1.2,1.6c-0.7,0.7-1.6,1.2-2.7,1.4c-0.6,0.1-1.2,0.2-2,0.2c-1.8,0-3.3-0.6-4.5-1.9s-1.9-3.1-1.9-5.5
				c0-2.3,0.6-4.2,1.9-5.6c1.2-1.4,2.9-2.2,4.9-2.2C88.9,111.8,89.9,111.9,90.8,112.4z M91.6,118.1c-0.1-1-0.3-1.9-0.7-2.5
				c-0.7-1.2-1.8-1.7-3.3-1.7c-1.1,0-2,0.4-2.8,1.2c-0.7,0.8-1.1,1.8-1.2,3H91.6z"/>
			<path id="XMLID_15_" d="M106.6,112.8c1,0.8,1.6,2.1,1.8,4.1h-2.3c-0.1-0.9-0.5-1.6-1-2.2s-1.3-0.9-2.4-0.9
				c-1.5,0-2.6,0.7-3.3,2.2c-0.4,1-0.6,2.2-0.6,3.6s0.3,2.6,0.9,3.6c0.6,1,1.6,1.5,2.9,1.5c1,0,1.8-0.3,2.4-0.9
				c0.6-0.6,1-1.4,1.2-2.5h2.3c-0.3,1.9-0.9,3.3-2,4.2c-1.1,0.9-2.4,1.3-4.1,1.3c-1.9,0-3.4-0.7-4.5-2.1c-1.1-1.4-1.7-3.1-1.7-5.1
				c0-2.5,0.6-4.5,1.8-5.9c1.2-1.4,2.8-2.1,4.7-2.1C104.3,111.7,105.6,112.1,106.6,112.8z"/>
			<path id="XMLID_17_" d="M110.9,106.7h2.4v7.3c0.6-0.7,1.1-1.2,1.5-1.5c0.8-0.5,1.7-0.8,2.9-0.8c2.1,0,3.5,0.7,4.2,2.2
				c0.4,0.8,0.6,1.9,0.6,3.3v9.2h-2.5v-9c0-1.1-0.1-1.8-0.4-2.3c-0.4-0.8-1.3-1.2-2.5-1.2c-1,0-1.9,0.3-2.7,1
				c-0.8,0.7-1.2,2-1.2,3.9v7.6h-2.4v-19.7H110.9z"/>
		</g>
	</g>
	<g>
		<path d="M100,50.3c-0.2,1.2-0.4,2.4-0.7,3.6c-1.2,4.6-3.6,8.5-6.9,11.8c-2.7,2.7-5.7,4.8-9.1,6.5c-5.5,2.8-11,5.6-16.5,8.4
			c-0.2,0.1-0.4,0.2-0.6,0.3c-0.6-1.2-1.2-2.4-1.8-3.7c0.2-0.1,0.4-0.3,0.7-0.4c5.4-2.7,10.8-5.5,16.2-8.2c3.4-1.7,6.2-4,8.8-6.7
			c4.2-4.4,5.9-9.7,5.4-15.7c-0.7-7.9-4.8-13.6-11.9-16.9c-4.7-2.2-9.6-2.7-14.5-1.1c-7.7,2.5-13.6,9.1-14.6,17.7
			c-0.8,7.1,1.7,12.8,6.9,17.6c2.2,2,4.7,3.7,7.4,5c0.4,0.2,0.8,0.4,1.4,0.7c-0.7,0.4-1.2,0.7-1.8,1c-0.8,0.4-1.5,0.9-2.3,1.3
			c-0.2,0.1-0.5,0.1-0.6,0c-5.8-3.2-10.6-7.3-13.3-13.5c-1.1-2.6-1.7-5.2-2-8c0-0.2-0.1-0.3-0.1-0.5c0-1.4,0-2.7,0-4.1
			c0-0.2,0.1-0.3,0.1-0.5c0.2-2.5,0.8-4.8,1.8-7.1c3.3-7.3,9-11.8,16.5-14c1.5-0.4,3-0.6,4.5-0.9c1,0,1.9,0,2.9,0
			c0.2,0,0.3,0.1,0.5,0.1c3.6,0.4,7,1.4,10.3,3c8,4,12.2,10.5,13.2,19.3c0.1,0.9,0.2,1.8,0.2,2.7C100,48.8,100,49.6,100,50.3z"/>
		<path d="M66.3,90.2c-0.6-1.3-1.3-2.5-2-3.8c6.3-3.1,12.5-6.3,18.8-9.4c0.7,1.2,1.3,2.4,2,3.7c-0.2,0.1-0.5,0.3-0.7,0.4
			c-5.8,2.9-11.6,5.9-17.4,8.8c-0.2,0.1-0.4,0.3-0.6,0.4C66.3,90.2,66.3,90.2,66.3,90.2z"/>
		<path d="M79.1,38.5c0,1.4,0,2.7,0,4.1c-0.6,0-1.2,0-1.8,0c0,4.4,0,8.8,0,13.2c0.6,0,1.2,0,1.8,0c0,1.4,0,2.8,0,4.2
			c-2.7,0-5.4,0-8.1,0c0-1.4,0-2.7,0-4.1c0.5,0,1.1,0,1.6,0c0-4.4,0-8.7,0-13.2c-0.5,0-1.1,0-1.7,0c0-1.4,0-2.8,0-4.2
			C73.7,38.5,76.4,38.5,79.1,38.5z"/>
	</g>
</g>
</svg>
